<?xml version="1.0" encoding="UTF-8"?>
<svg width="687.88" height="971.33" version="1.1" viewBox="0 0 687.88 971.33331" xml:space="preserve" xmlns="http://www.w3.org/2000/svg" xmlns:cc="http://creativecommons.org/ns#" xmlns:dc="http://purl.org/dc/elements/1.1/" xmlns:rdf="http://www.w3.org/1999/02/22-rdf-syntax-ns#"><metadata><rdf:RDF><cc:Work rdf:about=""><dc:format>image/svg+xml</dc:format><dc:type rdf:resource="http://purl.org/dc/dcmitype/StillImage"/></cc:Work></rdf:RDF></metadata><defs><clipPath id="s"><path d="M 0,728.5 H 515.91 V 0 H 0 Z"/></clipPath><clipPath id="r"><path d="m16.597 567.38h470.66v-392.08h-470.66z"/></clipPath><clipPath id="q"><path d="M 0,728.5 H 515.91 V 0 H 0 Z"/></clipPath><clipPath id="p"><path d="m101.83 130.31s-14.176-6.418-18.857-10.163c-4.68-3.745-16.717-9.897-16.717-9.897s2.942-7.757 10.966-17.52c8.025-9.762 11.903-13.373 11.903-13.373l3.21 2.541s3.611-2.541 3.076-5.484c-0.535-2.942 0.134-4.814 3.744-9.361 3.611-4.548 13.776-17.52 21.933-19.125 8.159-1.605 22.335-0.669 23.806 0.134 0 0 2.407 10.967 1.872 13.106-0.534 2.14-4.279 7.49-8.826 8.292-4.548 0.802-9.094 2.14-9.094 2.14s-1.204 3.878-2.141 4.547c0 0 1.472 9.629 0.937 13.508-0.535 3.878-2.407 11.367 1.738 15.78l2.14 1.472s-28.19 23.403-29.678 23.404c-4e-3 0-8e-3 0-0.012-1e-3"/></clipPath><clipPath id="o"><path d="M 0,728.5 H 515.91 V 0 H 0 Z"/></clipPath><clipPath id="n"><path d="m300.84 65.178s-3.21-7.757-4.28-12.571c-1.07-4.815 0.268-4.948-0.936-6.821-1.204-1.872-2.407-10.699-2.407-10.699s2.541-7.623 35.24-7.322l0.201 6.72s12.838-0.2 18.054-3.912l0.702-3.611s28.085-5.516 42.629 0.502c0 0 8.627 3.51 11.536 7.121 0 0 0.099 9.429-1.104 11.736-1.204 2.307-2.006 5.116-7.823 6.118-2.565 0.442-5.986 0.377-9.33 0.314-4.241-0.082-8.356-0.164-10.431 0.79-3.711 1.705-23.871 14.444-27.182 19.56 0 0-44.2-5.517-44.869-7.925"/></clipPath><clipPath id="m"><path d="M 0,728.5 H 515.91 V 0 H 0 Z"/></clipPath><clipPath id="l"><path d="m196.85 242.92c-1.604-7.021-1.002-25.477-1.002-25.477l76.23-25.878s66.401-24.675 68.407-24.474 25.477 13.842 25.477 13.842c4.614 10.832 12.037 64.194 12.037 67.203s1.204 13.842-3.009 16.45-38.918 20.863-38.918 20.863c-0.2 5.016-3.411 9.428-6.62 11.034-1.54 0.769-2.895-0.63-5.038-2.029-2.327-1.518-5.582-3.035-11.011-1.783-10.431 2.407-99.1 15.648-99.1 15.648-2.407-1.806-15.848-58.377-17.453-65.399"/></clipPath><clipPath id="k"><path d="M 0,728.5 H 515.91 V 0 H 0 Z"/></clipPath><clipPath id="j"><path d="m315.61 355.86c-5.617 1.806-95.088-35.908-95.088-35.908s-3.41-16.852-2.407-22.87-3.41-25.677-5.015-31.695-0.402-5.016-5.217-9.429c-4.814-4.413-11.836-17.854-11.836-17.854s0.803 0-1.604-1.405c-2.407-1.404-14.845-13.039-18.456-16.248-3.61-3.211-35.307-41.125-42.328-47.344s-35.708-43.733-35.708-43.733l3.009-1.805c3.009-1.805 35.106-27.884 35.106-27.884s48.147 57.373 53.362 62.79c5.216 5.417 38.115 37.714 51.957 51.757 13.842 14.042 24.073 46.139 24.073 46.139s6.42-13.24 8.827-18.656 12.036-40.122 12.839-44.134c0.802-4.012 0.401-18.656 1.605-29.49 1.203-10.832 5.014-44.735 5.014-44.735 0.603-19.258 6.219-59.379 6.219-59.379s9.63-1.605 18.256-1.004c8.626 0.602 28.887 8.025 28.887 8.025l-6.82 78.839s-3.21 70.614-3.009 76.832c0.2 6.219-2.207 14.645-2.408 16.851-0.201 2.207-4.012 43.732-4.814 48.949-0.803 5.215-4.012 28.084-6.219 35.307-2.207 7.221 3.009 40.522 3.009 40.522z"/></clipPath><clipPath id="i"><path d="M 0,728.5 H 515.91 V 0 H 0 Z"/></clipPath><clipPath id="h"><path d="m275.16 617.25c-3.209-0.535-21.13-14.443-23.136-16.316-2.006-1.872-24.876-23.137-26.882-30.894s0.936-14.31 4.814-16.316c0 0-10.832-19.793-14.844-34.237s-7.623-37.179-9.362-40.656-1.337-7.623-2.273-9.094c-0.937-1.471-2.275-3.745-3.612-6.286-1.336-2.541-3.477-10.164-3.611-12.438-0.133-2.273-15.246-48.146-17.787-52.96-2.541-4.815-19.526-55.769-19.526-55.769s4.949-7.489 12.304-11.502c7.356-4.012 67.806-29.823 73.824-30.893 6.019-1.07 22.869-5.884 28.62-9.095 5.75-3.209 28.219-9.093 31.161-8.96 2.942 0.134 5.751 26.079 7.088 31.162 1.338 5.081 11.769 50.017 12.037 51.221 0 0-1.873-21.799-1.739-24.607 0.133-2.809 0.802-9.496 1.07-12.706s5.75-26.748 5.75-29.021h9.496l5.885 64.596 6.552 77.969s2.141 23.003-0.4 32.097c-2.542 9.095-9.362 35.441-13.241 51.088 0 0-2.139 7.222-3.477 8.693-1.337 1.471-3.343 10.432-4.68 12.973-1.338 2.541-2.274 2.942-2.274 5.349s1.605 17.386 3.21 18.055c0 0-43.065 39.052-45.204 41.191-2.046 2.046-6.168 7.391-9.331 7.391-0.146 0-0.29-0.012-0.432-0.035"/></clipPath><clipPath id="g"><path d="M 0,728.5 H 515.91 V 0 H 0 Z"/></clipPath><clipPath id="f"><path d="m314.21 656.84c-6.153-2.54-7.222-12.304-6.153-15.379 1.071-3.076-5.817-13.173-5.817-13.173-2.675 2.54-4.738 2.299-7.422 1.671-3.143-0.735-4.681-5.149-4.414-9.027 0.268-3.879 3.879-7.958 7.356-10.633 3.477-2.674 10.164-3.61 10.164-3.61s0.267-3.478 1.471-6.286c1.204-2.809 17.921-12.438 21.933-14.845s12.705-2.274 17.922-0.535c5.215 1.739 1.737 8.292 1.337 9.228-0.401 0.937 0 2.674 0.936 3.611 0.936 0.936-0.936 5.216-0.936 5.216s1.203-0.267 2.541 1.47c1.337 1.739-0.402 9.362-0.402 9.362 3.611 0.268 4.548 4.548 3.611 6.153-0.936 1.604-6.62 9.829-6.62 9.829 0.201 2.207 0.402 5.617 0 9.429-0.401 3.811-6.419 15.848-6.419 15.848-1.57 3.821-6.25 5.083-11.511 5.083-6.615 0-14.151-1.996-17.577-3.412"/></clipPath><clipPath id="e"><path d="M 0,728.5 H 515.91 V 0 H 0 Z"/></clipPath><clipPath id="d"><path d="m311.13 672.35-1.338 1.471c-4.413 2.006-12.17 1.204-14.176-0.267s-18.322-14.444-22.067-20.195c-3.745-5.75 0.134-4.547-1.872-9.228-2.006-4.68 0.802-7.756-0.803-11.1-1.604-3.343-1.337-9.094 1.071-10.699 2.407-1.605-0.669-4.414 0.133-6.018 0.469-0.939 1.305-0.459 2.345 0.019 0.739 0.342 1.581 0.682 2.47 0.515 2.14-0.4 2.14-3.342 1.471-8.157s2.541-3.478 2.14-6.286c-0.402-2.809 4.948-6.42 8.425-6.152s4.28 7.623 3.878 10.298c-0.401 2.674 2.408 2.14 2.408 2.14s-1.472 6.285-3.209 8.024c-1.739 1.739-1.873 6.018-0.669 9.629 1.203 3.611 5.617 4.814 9.495 2.541s11.502 0.535 14.444 4.146 6.954 4.146 8.559 5.884c1.605 1.739-2.408 3.745-4.547 6.955-2.14 3.21 2.274 5.617 1.203 6.285-1.07 0.669 1.605 4.013 4.547 2.675 2.943-1.337 7.623-0.4 8.292 0 0.669 0.402 2.274 2.14 4.548 1.873 2.273-0.267 4.814-2.942 6.687-3.21 1.872-0.268 4.412 5.349 4.279 7.757-0.134 2.407-7.088 9.094-7.088 9.094-5.425 4.778-11.052 6.278-15.981 6.277-8.317 0-14.645-4.271-14.645-4.271"/></clipPath><clipPath id="c"><path d="M 0,728.5 H 515.91 V 0 H 0 Z"/></clipPath><clipPath id="b"><path d="m193.18 340.55s-1.606-18.457-2.943-22.469c-1.338-4.012-3.209-6.82-3.611-9.093-0.401-2.275 0-3.745 2.006-3.745s4.681 1.872 5.751 4.68c1.07 2.809 2.675 4.815 3.076 4.013 0.402-0.803-1.604-7.089-2.942-8.292-1.337-1.204-5.082-2.407-4.815-4.146 0.268-1.739 0.669-3.611 3.611-2.541s6.687 2.273 8.025 5.081c1.337 2.809 2.942 6.687 4.012 6.42s0.267-2.675-1.472-5.483c-1.738-2.809-3.611-5.617-5.483-7.489-1.872-1.873-2.808-3.611-1.07-4.949 1.739-1.337 3.21-1.604 5.216 0.134s5.082 2.541 6.554 5.216c1.47 2.675 2.808 8.559 3.61 10.03 0.803 1.471 2.943 1.338 2.14-0.535-0.802-1.872-5.082-10.164-7.355-12.304-2.274-2.139-2.675-4.681-0.937-5.617 1.739-0.936 6.42 1.605 8.96 4.414 2.542 2.809 5.35 10.03 6.956 14.042 1.604 4.013 3.61 7.356 3.61 10.7 0 3.343 0.268 18.722 0.268 18.722s-17.159 3.762-27.687 3.763c-2.183 0-4.079-0.162-5.48-0.552"/></clipPath><clipPath id="a"><path d="M 0,728.5 H 515.91 V 0 H 0 Z"/></clipPath></defs><g transform="matrix(1.3333 0 0 -1.3333 0 971.33)"><g clip-path="url(#s)"><g transform="translate(117,258.5)"><path d="m0 0c-25.158 12.452-113 81-64 146s210 33 219 92-136 118-90 155 113 84 196-25 139-284 87-345-249-72-348-23" fill="#6fbce2"/></g><g transform="translate(254.6 119.99)"><path d="m0 0c25.226-35.336-153.06 0.205-145.81 61.853 7.25 61.647 95.365 48.965 165.57 68.675 70.204 19.709 77.46 105.69 18.61 123.62s-77.071 121.35-8.519 112.94c68.553-8.402 208.61-56.115 206.77-182.54-1.842-126.42-275.24-130.46-236.62-184.56" fill="#efa26a"/></g><g transform="translate(414.51 80.332)"><path d="m0 0s-0.465 0.225-1.367 0.662c-0.899 0.448-2.235 1.112-3.977 1.978-3.452 1.749-8.49 4.339-14.813 7.78-6.34 3.413-13.951 7.702-22.608 12.74-8.645 5.057-18.312 10.905-28.724 17.49-10.395 6.612-21.574 13.904-33.17 21.947-11.657 7.953-23.664 16.748-36.001 25.946-12.223 9.35-24.779 19.113-37.151 29.504-3.096 2.594-6.231 5.166-9.326 7.804-3.069 2.668-6.147 5.345-9.23 8.026-6.223 5.3-12.204 10.922-18.3 16.412-3.064 2.726-5.994 5.6-8.973 8.414-2.969 2.824-5.935 5.645-8.895 8.461-5.804 5.751-11.577 11.49-17.249 17.234-2.784 2.923-5.557 5.835-8.317 8.732-1.379 1.448-2.755 2.893-4.127 4.334l-2.056 2.158-1.994 2.203c-2.652 2.936-5.288 5.854-7.904 8.752-2.598 2.913-5.263 5.73-7.721 8.687-2.495 2.923-4.97 5.822-7.422 8.693-1.226 1.436-2.445 2.865-3.659 4.286-0.607 0.711-1.212 1.42-1.815 2.127-0.584 0.724-1.165 1.446-1.746 2.166-4.63 5.769-9.16 11.413-13.57 16.907-4.245 5.621-8.374 11.089-12.368 16.379-0.5 0.661-0.997 1.319-1.492 1.974-0.474 0.67-0.947 1.338-1.418 2.002-0.939 1.33-1.869 2.649-2.792 3.955-1.843 2.612-3.653 5.175-5.425 7.686-1.755 2.522-3.546 4.942-5.164 7.397-1.615 2.458-3.192 4.86-4.729 7.201-3.056 4.694-6.033 9.096-8.688 13.322-2.592 4.267-5.018 8.26-7.261 11.952-1.121 1.846-2.197 3.617-3.224 5.309-0.514 0.846-1.016 1.672-1.506 2.478-0.462 0.823-0.913 1.624-1.353 2.405-6.985 12.514-10.977 19.665-10.977 19.665s4.086-7.095 11.237-19.513c0.449-0.774 0.91-1.569 1.384-2.385 0.5-0.799 1.013-1.618 1.538-2.457 1.049-1.677 2.148-3.432 3.293-5.262 2.29-3.659 4.767-7.616 7.413-11.844 2.71-4.187 5.743-8.545 8.857-13.192 1.566-2.317 3.173-4.694 4.817-7.127 1.649-2.43 3.47-4.823 5.256-7.318 1.803-2.483 3.644-5.017 5.519-7.601 0.938-1.291 1.884-2.594 2.839-3.91 0.479-0.657 0.959-1.316 1.442-1.979 0.503-0.648 1.008-1.298 1.515-1.951 4.057-5.225 8.251-10.627 12.562-16.18 4.473-5.423 9.067-10.994 13.764-16.687 0.588-0.711 1.178-1.423 1.769-2.138 0.612-0.697 1.225-1.396 1.84-2.097 1.229-1.402 2.465-2.811 3.707-4.226 2.483-2.831 4.99-5.689 7.517-8.571 2.49-2.915 5.186-5.689 7.815-8.56 2.647-2.854 5.314-5.728 7.996-8.62l2.018-2.17 2.078-2.124c1.387-1.418 2.778-2.84 4.173-4.265 2.789-2.851 5.591-5.716 8.405-8.593 5.731-5.65 11.56-11.292 17.419-16.944 2.987-2.767 5.98-5.539 8.975-8.313 3.006-2.764 5.962-5.587 9.052-8.263 6.147-5.388 12.177-10.907 18.446-16.103 3.107-2.63 6.207-5.254 9.299-7.871 3.117-2.585 6.273-5.105 9.39-7.647 12.457-10.181 25.087-19.734 37.376-28.876 12.401-8.991 24.462-17.582 36.164-25.338 11.641-7.846 22.854-14.948 33.273-21.381 10.437-6.407 20.118-12.088 28.767-16.994 8.661-4.886 16.268-9.04 22.591-12.336 6.309-3.325 11.32-5.817 14.738-7.491 1.706-0.821 3.014-1.45 3.896-1.874 0.889-0.416 1.348-0.631 1.348-0.631z" fill="#e9755c"/></g><g transform="translate(133.26 684.77)"><path d="m0 0s0.482-0.196 1.416-0.575c0.97-0.39 2.315-0.987 4.095-1.762 3.524-1.584 8.63-3.996 15.001-7.275 6.343-3.328 13.965-7.506 22.498-12.633 2.139-1.271 4.302-2.655 6.553-4.04 1.123-0.697 2.262-1.404 3.416-2.121 1.138-0.741 2.292-1.493 3.461-2.254 2.332-1.53 4.724-3.099 7.172-4.705 2.411-1.661 4.878-3.36 7.397-5.096 2.537-1.708 5.047-3.565 7.623-5.433 2.56-1.887 5.225-3.733 7.832-5.751 2.616-2.004 5.276-4.042 7.977-6.111 0.675-0.518 1.353-1.037 2.033-1.558 0.667-0.539 1.336-1.079 2.008-1.621 1.342-1.086 2.694-2.179 4.055-3.28 5.497-4.341 10.924-9.062 16.514-13.834 0.697-0.597 1.396-1.197 2.097-1.798 0.686-0.619 1.373-1.24 2.062-1.862 1.377-1.245 2.762-2.496 4.153-3.753s2.789-2.519 4.193-3.788l2.11-1.907 2.067-1.971c5.501-5.292 11.192-10.568 16.638-16.229 2.749-2.804 5.551-5.588 8.3-8.451 2.703-2.907 5.419-5.828 8.146-8.761 1.364-1.467 2.73-2.936 4.098-4.408 1.357-1.481 2.658-3.018 3.993-4.529 2.655-3.033 5.317-6.076 7.985-9.125l2.001-2.288 1.933-2.349 3.868-4.705c2.579-3.138 5.16-6.279 7.742-9.42 2.482-3.219 4.964-6.439 7.444-9.655l3.717-4.822c1.238-1.605 2.489-3.199 3.652-4.857 2.369-3.283 4.733-6.559 7.091-9.826 2.334-3.283 4.767-6.48 6.953-9.832 2.235-3.317 4.461-6.621 6.676-9.908 2.194-3.3 4.477-6.518 6.511-9.871 2.083-3.319 4.154-6.619 6.21-9.895 1.027-1.637 2.051-3.269 3.071-4.895 1.021-1.625 2.051-3.236 2.988-4.894 3.833-6.578 7.603-13.046 11.294-19.378 3.528-6.422 6.896-12.75 10.22-18.884 0.828-1.535 1.65-3.059 2.467-4.573 0.796-1.524 1.535-3.064 2.297-4.578 1.509-3.034 2.996-6.022 4.458-8.961 2.909-5.883 5.822-11.517 8.269-17.094 2.529-5.536 4.953-10.841 7.258-15.887 0.577-1.261 1.145-2.506 1.706-3.734 0.523-1.246 1.039-2.474 1.547-3.685 1.012-2.424 1.995-4.779 2.947-7.061 3.794-9.131 7.216-17.043 9.622-23.726 5.031-13.272 7.906-20.857 7.906-20.857s-2.977 7.544-8.186 20.746c-2.493 6.645-6.022 14.51-9.935 23.582-0.982 2.267-1.996 4.606-3.039 7.014-0.524 1.203-1.056 2.423-1.595 3.66-0.577 1.219-1.162 2.456-1.755 3.708-2.37 5.009-4.863 10.275-7.463 15.77-2.518 5.534-5.504 11.122-8.487 16.956-1.499 2.913-3.023 5.876-4.57 8.884-0.781 1.501-1.539 3.027-2.354 4.538-0.835 1.499-1.677 3.01-2.524 4.531-3.4 6.077-6.845 12.345-10.45 18.702-3.765 6.265-7.612 12.665-11.524 19.173-0.956 1.64-2.004 3.233-3.044 4.839-1.039 1.607-2.082 3.22-3.128 4.839-2.093 3.237-4.201 6.497-6.322 9.778-2.071 3.313-4.39 6.489-6.62 9.748-2.251 3.245-4.512 6.506-6.783 9.78-2.221 3.308-4.689 6.461-7.057 9.697-2.391 3.221-4.788 6.451-7.19 9.688-1.18 1.634-2.447 3.204-3.702 4.786l-3.764 4.748c-2.51 3.167-5.023 6.337-7.535 9.508-2.611 3.089-5.221 6.179-7.829 9.266l-3.909 4.627-1.952 2.31-2.021 2.247c-2.693 2.996-5.381 5.985-8.06 8.965-1.348 1.483-2.661 2.994-4.03 4.448-1.379 1.444-2.756 2.886-4.131 4.324-2.748 2.878-5.486 5.743-8.21 8.595-2.768 2.807-5.589 5.535-8.356 8.281-5.482 5.549-11.204 10.71-16.731 15.887l-2.078 1.928-2.119 1.863c-1.41 1.24-2.813 2.474-4.21 3.702-1.396 1.228-2.786 2.45-4.169 3.666-0.691 0.608-1.381 1.214-2.069 1.819-0.703 0.587-1.404 1.172-2.104 1.755-5.606 4.656-11.047 9.263-16.551 13.489-1.363 1.073-2.717 2.138-4.061 3.195-0.672 0.528-1.342 1.055-2.009 1.579-0.681 0.507-1.359 1.012-2.035 1.516-2.702 2.012-5.363 3.994-7.979 5.944-2.606 1.962-5.269 3.753-7.827 5.586-2.573 1.813-5.08 3.617-7.612 5.271-2.513 1.682-4.973 3.329-7.378 4.939-2.441 1.554-4.824 3.072-7.149 4.552-1.164 0.736-2.313 1.463-3.446 2.18-1.149 0.692-2.282 1.374-3.4 2.047-2.239 1.336-4.392 2.674-6.518 3.898-8.482 4.942-16.034 8.95-22.302 12.132-6.293 3.131-11.305 5.416-14.736 6.904-1.716 0.719-3.043 1.286-3.901 1.617-0.89 0.348-1.35 0.528-1.35 0.528z" fill="#e9785d"/></g><g clip-path="url(#r)" opacity=".7"><g transform="translate(381.26 175.91)"><path d="m0 0-1.268 0.218 0.869 0.043z" fill="#fff"/></g><g transform="translate(383.36 175.81)"><path d="m0 0-0.779-0.508-0.795 1.471z" fill="#fff"/></g><g transform="translate(141.96 554.32)"><path d="m0 0c-0.301 1.013 0.553 0.427 0.3 1.477 1.781-1.355 2.772-2.81 3.818-4.741 0.374-1.413-0.184-1.842-1.352-1.043-1.117 1.15-2.393 3.11-2.766 4.307" fill="#9c7e6a"/></g><g transform="translate(134.76 567.25)"><path d="m0 0c0.702-0.171 1.435-1.575 2.176-2.49 0.466-1.128 0.404-1.633-0.065-1.771-1.376 0.904-4.094 5.216-2.111 4.261" fill="#9c7e6a"/></g><g transform="translate(91.627 286.31)"><path d="m0 0c0.647-1.176 0.965-3.039-0.03-2.24l-0.816 0.915c-0.513 1.422-0.104 2.528 0.846 1.325" fill="#9c7e6a"/></g><g transform="translate(186.74 382.74)"><path d="m0 0-0.286 0.45 0.443 0.284 0.287-0.45z" fill="#9c7e6a"/></g><g transform="translate(91.308 293.72)"><path d="m0 0c0.269-0.073 0.413-0.539 0.631-1.001 0.022-0.54-0.402-1.104-0.892-0.068-0.028 0.537-0.19 1.209 0.261 1.069" fill="#9c7e6a"/></g><g transform="translate(195.5 382.79)"><path d="m0 0 0.984-1.523c-0.121-1.794-2.132-0.543-3.898 1.118 0.774 0.075 1.098 2.033 2.914 0.405" fill="#9c7e6a"/></g><g transform="translate(105.71 283.18)"><path d="m0 0c1.129-1.667 2.148-3.771 1.118-4.266-0.932 0.473-1.482 0.944-2.332 2.377-0.466 1.634 0.273 2.373 1.214 1.889" fill="#9c7e6a"/></g><g transform="translate(16.786 403.86)"><path d="m0 0-0.189-0.09c0.768 1.397 1.988 3.141 4.362 0.266 0.739-1.848-0.101-1.866-0.635-2.121-0.871-0.796-2.802 1.755-3.584 0.999-0.28 0.629 0.459 0.106 0.046 0.946" fill="#9c7e6a"/></g><g transform="translate(264.81 489.59)"><path d="m0 0c-0.234 0.073-0.805 0.606-0.88 0.352l-0.499 2.049c-2.807 2.558-0.361 2.694-1.789 4.583 0.986 1.24 2.044 1.063 4.848-0.527 2.602-2.735 2.26-2.994 4.771-5.727-0.586-0.999 4.456-5.788 1.977-5.697 0.738-2.384-1.847-0.132-1.786-1.843 0.271 0.692-1.463 1.361-2.216 1.773l-0.74-0.072c-0.559 1.789-2.026 2.679-3.3 3.43 0.745-0.177-0.198 1.069-0.386 1.679" fill="#9c7e6a"/></g><g transform="translate(29.454 399.02)"><path d="m0 0c0.556-0.393 1.116-0.371 1.72-1.277 0.553-1.904-0.809-1.542-1.41-1.69l-1.644 1.434c0.138 0.828 0.624 1.426 1.334 1.533" fill="#9c7e6a"/></g><g transform="translate(29.653 409.11)"><path d="m0 0c0.25-0.138 0.567-0.62 0.726-0.542l0.347-0.746c-0.42-1.645-2.043 0.041-3.082 0.036 0.273 0.641 0.873 1.984 2.009 1.252" fill="#9c7e6a"/></g><g transform="translate(29.633 407.94)"><path d="m0 0c-0.158 0.447-0.06-1.075-0.635-0.05z" fill="#fff"/></g><g transform="translate(27.588 415.26)"><path d="M 0,0 0.027,-0.264 0,0 -0.531,0.122 C -0.324,0.101 -0.328,0.499 0,0" fill="#9c7e6a"/></g><g transform="translate(45.666 440.75)"><path d="m0 0c0.179-0.079 0.353-0.425 0.534-0.784l-0.584 0.428c0.165-0.054 0.085 0.201 0.05 0.356" fill="#9c7e6a"/></g><g transform="translate(109.02 379.08)"><path d="m0 0c0.568-0.351 0.979-0.982 1.385-1.856 0.019-0.867-0.095-0.931-0.803-0.45-0.287 0.94-1.336 2.331-0.582 2.306" fill="#9c7e6a"/></g><g transform="translate(90.793 432.31)"><path d="m0 0c0.109 0.302 0.48 0.274 0.999-0.281 0.169-0.809 0.966-2.113 0.593-2.326-0.538-0.307-1.505 1.805-1.592 2.607" fill="#9c7e6a"/></g><g transform="translate(76.554 460.5)"><path d="m0 0c0.781-0.426 1.882-0.694 2.844-2.783 1.136-2.032 1.48-3.369 0.808-3.769-0.056-1.372-1.555 1.321-2.107 1.458-1.349 2.306-1.242 3.454-1.545 5.094" fill="#9c7e6a"/></g><g transform="translate(88.272 438.85)"><path d="m0 0c0.159 0.094 0.234 0.349 0.61-0.092 0.469-0.84 0.78-1.53 0.852-2.152-0.369-0.219-1.694 1.662-1.462 2.244" fill="#9c7e6a"/></g><g transform="translate(120.8 387.95)"><path d="m0 0c0.41-0.199 0.693-0.035 1.33-0.77 0.35-1.159 1.286-2.148 1.154-3.118-0.812-0.694-2.806 2.606-2.484 3.888" fill="#9c7e6a"/></g><g transform="translate(76.575 362.51)"><path d="m0 0-0.458-1.16-0.278 1.172z" fill="#9c7e6a"/></g><g transform="translate(83.432 360.01)"><path d="m0 0c0.902-0.489 1.891-0.546 2.575-2.653 0.972-3.83-1.879-2.266-2.911-2.412l-0.232-0.118c0.013 0.559-0.705 1.126-0.782 1.863-0.682-1.295-1.739 2.473-2.442 1.383 0.694 1.847 1.912 2.47 3.792 1.937" fill="#9c7e6a"/></g><g transform="translate(97.731 434.41)"><path d="m0 0c0.146 0.726 0.985-0.998 1.432-1.415 0.461-1.065-0.024-1.35-0.746-0.439-0.521 0.794-0.541 1.22-0.686 1.854" fill="#9c7e6a"/></g><g transform="translate(123.36 396.33)"><path d="m0 0c0.48-0.19 0.871-1.27 1.252-1.938 0.267-0.724-0.354-0.421-0.473-0.749-0.915 0.835-1.652 3.052-0.779 2.687" fill="#9c7e6a"/></g><g transform="translate(113.54 415.32)"><path d="m0 0c0.615-0.304 1.427-1.593 1.607-2.416-0.378 6e-3 -0.418-0.681-1.146 0.464-0.934 1.248-0.249 1.195-0.461 1.952" fill="#9c7e6a"/></g><g transform="translate(123 399.45)"><path d="m0 0c1.054-0.936 1.222 1.615 2.653-1.788-0.87 0.353-0.305-2.19-1.897-0.461-0.178 0.576-0.756 1.588-0.756 2.249" fill="#9c7e6a"/></g><g transform="translate(90.557 369.52)"><path d="m0 0c0.459 0.242 0.861 0.455 0.389 1.948-0.46 0.604-1.086 0.682-1.452 1.806 2.603-0.351 4.393 2.118 8.414-2.908 0.773-1.335 1.023-2.508 1.102-3.509-0.348-0.184-0.945-0.742-0.767-1.926-1.849 1.828-1.496-2.121-3.528-0.335 0.272-0.101-0.034 0.625-0.02 1.032-1.265 0.857-2.803 1.568-4.204 3.001z" fill="#9c7e6a"/></g><g transform="translate(108.3 345.32)"><path d="m0 0c2.535-4.3-0.682-2.94-1.393-3.311l-2.54 1.696c0.341 2.12 1.439 3.777 3.933 1.615" fill="#9c7e6a"/></g><g transform="translate(107.29 344.79)"><path d="m0 0 0.458-1.905-1.539 1.78 1.37-1.455z" fill="#fff"/></g><g transform="translate(246.18 383.25)"><path d="m0 0 1.411-1.394c1.153-4.927-3.333-4.041-6.353-3.258l-2.412 1.153c0.295 3.738 3.318 5.456 7.354 3.499" fill="#9c7e6a"/></g><g transform="translate(114.72 341.34)"><path d="m0 0-0.861 0.618 0.237 0.57z" fill="#9c7e6a"/></g><g transform="translate(120.87 341.59)"><path d="m0 0c0.42-0.217 1.016-0.766 1.61-1.298 0.696-1.159 0.677-2.273 0.555-2.765-0.733-1.244-2.405-0.422-3.839 0.544l0.139-0.54c7e-3 -0.454 0.043 0.637-0.028 1.058-0.56 1.213-0.824 0.409-1.16 0.45 0.18 1.847 0.944 3.576 2.723 2.551" fill="#9c7e6a"/></g><g transform="translate(120.93 339.01)"><path d="m0 0-0.667 0.542c0.418-1.527-0.085 0.16-0.427-0.229 1.14-0.691-0.438 1.264 1.094-0.313" fill="#fff"/></g><g transform="translate(127.03 335.98)"><path d="m0 0c-0.126 2.113 1.411 2.71 2.956 2.013 0.812-0.648 2.076-1.685 2.027-3.03-0.312-1.306-0.9-2.681-2.252-2.335-1.254 1.759-1.828 0.806-2.73 1.175-0.425 1.082 1.659 0.241-1e-3 2.177" fill="#9c7e6a"/></g><g transform="translate(128.18 336.59)"><path d="m0 0 0.398-0.449-0.121-0.065z" fill="#fff"/></g><g transform="translate(183.9 257.19)"><path d="m0 0c0.512-0.169 0.686-0.945 1.038-1.42 0.6-2.492-1.266-2.212-2.254-2.283-1.18 1.532-0.577-0.973-1.712 0.156 0.821 1.325 0.715 4.304 2.928 3.547" fill="#9c7e6a"/></g><g transform="translate(40.475 547.47)"><path d="m0 0c2.392-3.501 0.799-3.409 0.721-4.567-1.174-1.391-4.844 3.325-6.438 3.244l-1.492 1.132c2.679-0.843 1.82 6.494 7.209 0.191" fill="#9c7e6a"/></g><g transform="translate(183.22 324.14)"><path d="m0 0c0.422-0.417 0.722-0.238 1.234-0.829 0.656-0.96 1.603-2.416 1.318-3.489l-1.781-1.037c-0.265 0.307-0.232 0.536-0.376 0.904l-1.423 0.752c-1.442 3.153 0.176 3.191 1.028 3.699" fill="#9c7e6a"/></g><g transform="translate(169.61 316.28)"><path d="m0 0-0.429-0.674 3e-3 0.435z" fill="#fff"/></g><g transform="translate(199.46 329.37)"><path d="m0 0-0.231 0.911c-0.526 0.541-0.473-0.076-0.76-0.038-0.752 2.507 0.194 2.882 0.48 4.538 1.135-0.58 2.179-0.556 3.747-2.78 1.38-1.91 0.849-2.663 1.183-3.954-0.11-1.318-2.383 0.876-2.247-0.94l-0.17 0.514-2.862 1.872c0.288-0.046 0.298 0.585 0.86-0.123" fill="#9c7e6a"/></g><g transform="translate(72.94 507.38)"><path d="m0 0-0.86 0.362 0.474 0.295z" fill="#9c7e6a"/></g><g transform="translate(79.165 497.61)"><path d="m0 0c-9e-3 0.685 0.57-1.645 0.056-1.116l1.942-1.495-1.922 0.889z" fill="#9c7e6a"/></g><g transform="translate(79.78 497.35)"><path d="m0 0c-0.433 0.851 0.255 0.582 0.307 0.843 0.69-0.719 1.245-0.988 1.851-2.233 0.298-0.725-0.237-0.385-0.287-0.65-0.149 0.602 0.041 0.723-0.197 1.468-0.894 1.064-1.425 0.935-1.525 0.664 0.167-0.398 0.352-0.482 0.586-0.757l-0.229-0.642-0.141 1.031z" fill="#9c7e6a"/></g><g transform="translate(74.629 511.2)"><path d="M 0,0 -0.295,0.268 0,0 0.016,-1.136 C 0.442,-1.303 0.149,-0.586 0,0" fill="#9c7e6a"/></g><g transform="translate(156.63 392.09)"><path d="m0 0c1.837 0.085 1.163 4.962 4.63 2.26 1.669-1.916 2.077-4.266 1.507-4.623-1.061-1.281-3.928 1.416-5.671 1.596z" fill="#9c7e6a"/></g><g transform="translate(218.49 322.8)"><path d="m0 0c0.766 0.29 1.344 1.274 2.97-0.658 1.747-2.13 0.726-2.321 1.022-3.437-0.282-0.822-1.342-0.209-1.974-0.383-0.334 0.636-0.62 1.31-0.905 1.132-0.733 1.894-1.02 1.714-1.113 3.346" fill="#9c7e6a"/></g><g transform="translate(127.02 451.83)"><path d="m0 0c0.586 0.159 1.58-0.071 2.601-1.349 1.087-1.67 1.233-2.642 0.911-3.047-0.618-0.395-1.221-1.006-2.52 0.293-1.734 2.544-0.777 2.741-0.992 4.103" fill="#9c7e6a"/></g><g transform="translate(227.37 314.06)"><path d="m0 0c-0.137 1.19-1.282 1.378-1.261 1.78 0 0.431 0.774-0.378 0.922-0.492l0.441-0.379c0.371-1.217-0.37-1.68-1.313-0.821 0.243 0.152 1.098-0.762 1.211-0.088" fill="#9c7e6a"/></g><g transform="translate(72.892 541.85)"><path d="m0 0c0.206 0.813 1.238-0.033 2.352-1.009 1.087-1.677 2.444-4.033 1.75-4.057-0.733 0.194-3.721 2.741-4.102 5.066" fill="#9c7e6a"/></g><g transform="translate(99.332 502.58)"><path d="m0 0c-0.334 0.637-0.589 0.696-0.86 0.955-0.853 1.805 0.438 0.505 0.843 0.115 0.791 1.38 0.995 4.114 4.512 0.823 1.262-1.754 2.066-3.633 2.121-4.678l-2.204-1.027-0.065 0.359c-1.629 0.721-2.751 1.061-4.81 2.748 0.149 0.275 0.694 1e-3 0.463 0.705" fill="#9c7e6a"/></g><g transform="translate(146.46 431.2)"><path d="m0 0c0.386-0.81 0.893-1.146 1.37-1.724l-0.297 0.476 0.211 0.134 0.297-0.476c-0.216 0.063-0.083-0.245-0.025-0.432 0.923-0.914 1.501-0.986 0.799 0.515-1.281-0.214-1.958 3.029-3.08 3.607 0.344 0.859 1.132 2.685 3.636-0.645 0.736-1.264 1.025-2.576 1.123-3.375-0.654-5e-3 -0.804-1.178-1.12-1.802 0.085 0.053 0.303-0.019 0.104 0.487l-0.289 0.464-0.987-0.212c-0.165 0.542-0.991 1.298-0.986 1.966l-1.07 0.386c0.072 0.261 0.615-0.043 0.314 0.631" fill="#9c7e6a"/></g><g transform="translate(268.27 267.86)"><path d="m0 0c1.313-0.7 1.626-2.632 1.619-3.302 9e-3 -2.13-2.992 0.52-2.723-1.693-0.111 2.084-0.594 5.17 1.104 4.995" fill="#9c7e6a"/></g><g transform="translate(147.64 431.09)"><path d="m0 0c0.212 0.139 0.267-0.899 0.073-0.589l-0.283 0.452z" fill="#fff"/></g><g transform="translate(147.2 432.73)"><path d="m0 0c0.425-0.586 1.011-1.058 1.523-1.579l0.318-0.898c0.213-0.055 0.467-0.551 0.757-1.014l-1.387 1.272c-0.447 1-0.253 1.344-1.211 2.219l0.458-1.201c-0.416 0.566-0.341 0.824-0.458 1.201" fill="#fff"/></g><g transform="translate(325.6 360.41)"><path d="m0 0-1.69 1.167c-0.601 0.795 4.164-0.779 0.234 3.121 2.976-0.748 4.317 1.982 8.607-1.934 0.053 0.29 0.682 0.033 0.331 0.731l-1.527 0.848c0.723 1.257 0.405 4.229 2.895 3.161 0.636-0.502 1.756-1.406 2.065-2.387 2.345-6.343-6.754 0.317-1.486-8.965 0.184-2.33-1.635-3.676-3.588-3.133l-0.418-2.042c0.61 1.194-1.841 2.798-2.447 4.068l-0.806-0.595-0.482 1.838-2.269 1.225c0.4 0.295 1.486 0.867 0.581 2.897" fill="#9c7e6a"/></g><g transform="translate(237.65 318.43)"><path d="m0 0c1.127-0.37 1.407 1.306 3.526-1.431 1.974-2.813 0.068-2.113 0.51-3.752-0.256-0.573-1.464 0.983-1.553 0.057l-0.099 0.371c-0.644 0.891-3.536 4.417-2.384 4.755" fill="#9c7e6a"/></g><g transform="translate(116.18 491.41)"><path d="m0 0c-0.059 1.481 0.518 1.868 1.771 1.183 0.526-0.736 1.332-1.306 1.437-2.08 0.958-2.621-0.959-1.518-1.931-1.289 0.161 0.521-1.011 1.502-1.277 2.186" fill="#9c7e6a"/></g><g transform="translate(117.63 490.86)"><path d="m0 0-0.57-0.381-0.189 0.298z" fill="#fff"/></g><g transform="translate(258.5 303.77)"><path d="m0 0c-0.7-0.23-0.749 1.46-1.287 1.734 0.277 0.646 0.562 2.114 2.166 0.542 1.599-2.201 0.506-1.828 0.871-3.114l-1.582 0.059z" fill="#9c7e6a"/></g><g transform="translate(258.46 304.36)"><path d="m0 0 0.598 0.382 0.349-1.281-0.112 0.38-1.078 0.364-0.261 0.92z" fill="#fff"/></g><g transform="translate(267.32 317.67)"><path d="m0 0c-0.328 1.406-0.562 3.602 0.938 2.989 0.651-0.047 2.001-0.565 3.224-1.834 2.296-3.876-0.028-3.799-0.022-5.651l-0.093 0.397c-1.223 1.539-1.677 0.74-2.488 1.139-0.31 0.987-1.048 2.342-1.559 2.96" fill="#9c7e6a"/></g><g transform="translate(309 259.62)"><path d="m0 0c-0.287 0.555-0.826 0.655-1.116 0.927l-0.322-0.213c1.208 1.03 0.653 4.627 3.398 3.409 1.316-1.202 2.003-4.032 1.389-4.677-0.728-1.179-2.253-0.784-3.596-0.761z" fill="#9c7e6a"/></g><g transform="translate(120.92 507.35)"><path d="m0 0c-0.739 1.883-0.076 3.025 1.097 2.739 0.755-0.147 1.831-0.962 3.29-3.001 1.445-2.099 1.697-3.481 1.78-4.534-0.2-0.786-1.342 0.189-0.961-1.309-1.879 3.781-1.852 0.043-3.033 3.202l-0.882 0.511c0.186 0.3-0.602 1.756-1.291 2.392" fill="#9c7e6a"/></g><g transform="translate(157.54 453.72)"><path d="m0 0-0.066 0.362 0.185-0.282 0.282 0.19 0.418-0.798-1.168 0.7c0.13-0.116 0.374-0.393 0.349-0.172" fill="#9c7e6a"/></g><g transform="translate(283.66 301.69)"><path d="m0 0-0.996 1.455c1.709-0.755 1.842 3.333 5.108-0.344 2.416-2.833 1.475-4.162 1.487-5.787-1.262 1.024-0.76-0.51-1.199-0.804-0.272 0.26-0.264 0.519-0.427 0.887-0.932-0.387-1.121 1.1-2.325 1.244l-0.088 0.401-1.187 0.392c0.783 0.74-1.648 2.413-0.373 2.556" fill="#9c7e6a"/></g><g transform="translate(159.8 455.64)"><path d="m0 0c0.932-1.328 0.462-1.862 0.544-2.249l-1.411-0.286-0.414 1.266c1.096-2.115 1.391-1.034 1.62-1.118-0.371 0.651-0.416 1.248-0.99 1.948-1.734 1.922-1.2-0.145-1.487-0.338l-0.132 0.377-0.979-0.021c0.417 1.162 0.608 3.259 3.249 0.421" fill="#9c7e6a"/></g><g transform="translate(198.14 433.77)"><path d="m0 0c8e-3 0.221 0.322-8e-3 0.491-0.138l0.783-1.134-0.816 0.376c-0.187 0.387-0.18 0.609-0.458 0.896" fill="#9c7e6a"/></g><g transform="translate(273.38 346.08)"><path d="m0 0c0.157-0.348 0.39-0.428 0.677-0.7l0.15-1.095c0.395-0.191-0.894 1.498-1.652 1.693 0.562-0.539 0.53 0.128 0.825 0.102" fill="#9c7e6a"/></g><g transform="translate(206.5 451.24)"><path d="M 0,0 0.106,0.079 0.898,-1.025 C 0.777,-1.319 -0.038,-0.514 0,0" fill="#9c7e6a"/></g><g transform="translate(207.81 450.98)"><path d="m0 0c-0.384 1.214 0 0 0.109-0.378l0.787-0.651-0.265 1.497-0.453 0.404 0.453-0.404c-0.042 0.505-0.76 1.171-1.043 1.676-0.783 0.407-0.461-0.819-0.197-1.856l-0.337 0.243c-0.38 1.648 0.584 1.65 1.54 1.884 0.562-0.324 1.195-1.087 1.618-1.675 0.586-2.279-0.771-2.07-2.159-1.602z" fill="#9c7e6a"/></g><g transform="translate(209.56 450.11)"><path d="m0 0-0.329 0.232-0.317 1z" fill="#fff"/></g><g transform="translate(304.23 362.07)"><path d="m0 0c1.207-0.049 2.686-2.154 3.461-3.804-0.361-0.476 0.286-1.938-0.07-2.445-0.229 0.308-1.931 2.715-1.986 1.478 1.094-0.396 0.998-1.953 0.711-2.409l-0.172 1.073c-1.12 0.912-0.956-0.164-1.939 0.314l-0.168 1.072-1.343 0.718c0.352 1.471-0.127 3.794 1.506 4.003" fill="#9c7e6a"/></g><g transform="translate(240.15 426.55)"><path d="m0 0c0.738 1.037 0.406 3.219 3.254 0.736 1.401-1.671 1.506-3.313 1.397-4.093l-1.316-0.967-0.118 0.387-1.65 1.227-0.107 0.379-0.977 0.514c0.391 0.286 0.129 1.555-0.483 1.817" fill="#9c7e6a"/></g><g transform="translate(241.92 426.88)"><path d="m0 0c-0.62 0.499-0.614-0.204-0.891-0.162-0.23 0.552-0.137 0.867-0.086 1.149 0.905-0.315 1.74-2.134 2.363-2.873 0.366-1.196-1.083-0.583-0.851-1.363 0.373 1.223-1.687 2.646-0.535 3.249" fill="#fff"/></g><g transform="translate(242.83 425.64)"><path d="m0 0c0.031-0.271 0.038-0.511 0.312-0.768l0.353-0.479-0.28-0.206-0.353 0.48 0.166 0.122-1.071 0.902z" fill="#9c7e6a"/></g><g transform="translate(305.52 347.67)"><path d="m0 0c0.484-0.156 1.002-1.237 1.528-1.82 0.629-1.701-0.243-1.863-0.89-2.334-0.116 0.882 0.698 0.28 0.072 1.739l-1.456 1.362c0.274-0.749 0.28-1.482-0.369-0.963-0.114 1.12-0.161 2.526 1.115 2.016" fill="#9c7e6a"/></g><g transform="translate(236.42 442.58)"><path d="m0 0 1.034-0.945 0.16-1.576c4e-3 0.225-0.013 0.471-0.292 0.741l-0.514 0.349 0.679-1.949c-0.7 0.717-0.628 0.054-0.902 0.085l0.376 0.283-0.455 0.618 0.391-0.186-0.884 1.759-1.295-0.974c0.532 0.649 0.359 2.241 1.702 1.795" fill="#9c7e6a"/></g><g transform="translate(400.13 362.27)"><path d="m0 0c-1.605 2.721-1.427 0.409-2.393 1.171-0.326 0.99 1.488-0.379 0.411 1.529-0.8 0.648-1.901 1.043-1.74-0.043l-0.116-0.084c-0.445 1.842 2.064 1.241 0.041 4.636-0.257-0.185-1.445 0.896-1.646 1.71 0.765 0.786-0.677 3.409-0.192 4.478l-0.949 0.541c0.209 1.126 1.452 1.278 2.109 1.997-2.539 2.293 1.064 1.257-0.816 3.529 1.694-1.457 3.002-1.96 2.504-0.612 2.031-0.943 5.267-3.044 7.776-6.539 1.755-1.679 1.459-2.348 3.099-4.848l-0.519 0.402c0.541-0.862 0.743-1.913 1.632-2.488-0.186-0.608-0.138-1.541 0.647-2.948 1.145-1.589 1.849-3.527 1.085-3.336 0.087-0.439 0.469-0.859 0.696-1.172-0.254-0.182-0.333-0.502-0.029-1.25-0.202-1.851-1.266-2.832-0.188-6.433l-0.11 0.896-1.127 1.126 1.104-3.311c-0.946 1.493-1.208 3.237-2.558 4.459-1.058 0.691-0.599-0.675-0.829-1.095l-0.237 1.06c-1.282 1.015-0.272-1.643-1.706-0.744-1.001 2.637-2.463 3.576-3.835 4.262l-1.256-0.92c0.575 0.421 0.429 2.051-0.858 4.027" fill="#9c7e6a"/></g><g transform="translate(251.67 435.15)"><path d="m0 0c-0.051-0.278 0.298-0.744 0.641-1.205 1.056-0.958 1.179-0.324 1.763-0.429l-0.672 1.246c-1.08 0.877-9e-3 -1.01-1.238 0.289-1.001 1.913 0.93 0.693 1.423 1.07 1.969-1.95 1.172-2.824 0.602-2.98-0.116-1.099-1.578 0.282-2.371 0.435-7e-3 0.233-0.833 1.816-0.148 1.574" fill="#9c7e6a"/></g><g transform="translate(264.97 435.89)"><path d="m0 0c1.247-0.287 3.506-2.022 4.111-3.295 0.815-0.847 0.838-1.561 1.159-2.103 0.888 0.207 2.95-0.927 4.127-3.518 4e-3 -4.384-5.302-1.259-7.633-0.33l-0.445 1.393-1.128 0.358c-1.548 4.019-1.866 6.724-0.191 7.495" fill="#9c7e6a"/></g><g transform="translate(376.08 490.43)"><path d="m0 0-0.292-0.189c0.195 0.605-0.302 1.921-0.491 2.993-0.492 0.381-0.923 0.802-1.122 0.451l0.095-0.417c-0.303 0.744 1.013 0.656-0.56 2.463l-0.389 0.216c1.642 0.337-0.256 3.852 1.283 4.103-1.022 3.778 2.52 0.842 3.264 1.533 0.76-1.365 1.64-1.566 2.491-2.405l4.256-6.886c-0.072-0.952 0.538-2.459 1.057-4.225 1.339-0.575 3.248-1.941 4.731-3.824 2.913-3.559 1.651-4.768 2.962-7.652-1.189 0.625-1.276-0.78-1.28-1.926l0.148-0.874c-1.357 3.329-2.415 1.304-3.472 1.576l-0.398-0.258c-0.19 0.8 0.369 0.94-0.364 2.102l-0.98-0.634c0.078 0.273 0.305 0.419 0.033 1.232l-1.01 0.968c0.325-0.011-0.039 0.691-0.127 1.095-0.255 0.534-0.696 0.71-1.026 0.974l-0.057 1.131c-0.99 0.785-1.506 0.69-2.374 2.464l-1.827-0.235-0.128 1.112c-0.597 0.543-1.045 0.731-1.221 0.352l0.082-0.391-0.442 1.344-1.213-0.308c-0.725 1.391 0.296 2.795-1.629 4.115" fill="#9c7e6a"/></g><g transform="translate(354.63 365.79)"><path d="m0 0-0.871 0.577c-0.161 1.822-2.469 6.226-0.738 7.046 0.748 0.829 2.206-0.054 3.901-0.493 3.402-3.603 4.351-6.078 5.469-9.389-1.238 0.266-0.793-2.833-1.789-3.102l0.175-0.598-0.433 1.386-3.02 0.212c-0.54 1.289-1.977 2.954-2.694 4.361" fill="#9c7e6a"/></g><g transform="translate(292.2 403.34)"><path d="m0 0-0.24 0.318 0.393 0.294 0.24-0.317z" fill="#fff"/></g><g transform="translate(292.13 419.28)"><path d="m0 0c0.237-0.313 0.355-0.695 0.42-0.898-0.304 0.744-1.758 1.85-1.328 0.71-0.191 0.589 0.074 1.29 0.908 0.188" fill="#9c7e6a"/></g><g transform="translate(298.07 421.34)"><path d="m0 0-0.456 0.369c-0.163-0.124 0.08 1.285-1.032 2.17-0.465 3.618 5.858-3.682 3.934 1.747 2.443-1.621 2.817 0.416 5.698-2.813 2.082-2.633 2.282-4.736 2.093-6.094l-0.635-1.697c-0.418 0.667-0.933 0.779-0.974 0.479l-0.551-0.417c-1.288 2.494-1.361 0.184-2.731 1.401l0.166 0.126c-1.902 2.278-1.822 0.336-3.595 1.97l-0.792 0.132c-0.891 1.052-0.678 1.695-1.125 2.627" fill="#9c7e6a"/></g><g transform="translate(338.31 440.9)"><path d="m0 0c-0.732 0.186 0.324 0.968-1.061 1.677 0.61 0.451-0.89 2.263-0.683 2.914l-0.343 0.227c1.773-0.416-2.189 4.511 1.069 3.236-0.947 2.701 2.572-1.048 2.613 0.181 2.931-2.25 4.02-3.633 6.079-7.265 1.3-2.949 0.18-1.071 1.382-4.336l0.37-1.433c-2.135 2.333 1.271-3.233-1.165-0.843-0.318-0.49 0.117-1.664-0.617-1.7-0.072 0.436-0.431 0.926-0.656 1.231-0.864 0.603-0.903-0.172-1.282-0.23l-0.713 1.205-1.253 0.299c0.052 0.269-0.301 0.747-0.664 1.24l-0.66-8e-3c-1.687 1.692-0.336 2.426-2.416 3.605" fill="#9c7e6a"/></g><g transform="translate(352.53 424.17)"><path d="m0 0-0.711-0.995 0.327 0.711z" fill="#fff"/></g><g transform="translate(412.87 383.84)"><path d="m0 0-0.799 1.144c0.758-0.221-0.471 1.327-0.61 1.955 0.832 0.336 1.511 1.541 3.298-0.596l2.203-3.721c-0.774 0.358-0.02-1.488-0.039-2.217-0.856 1.339-0.995 0.023-1.063 0.227l-0.22 0.536c-0.707 0.039-1.127 0.436-2.329 1.289 0.479-0.138 0.226 0.646-0.441 1.383" fill="#9c7e6a"/></g><g transform="translate(414.48 382.08)"><path d="m0 0-0.225 0.323 0.503 0.351 0.225-0.323z" fill="#fff"/></g><g transform="translate(476.95 298.19)"><path d="m0 0c0.55 0.36 2.551-1.39 3.735-3.914 0.589-1.48 0.143-1.762-0.585-1.55-1.202 0.593-4.525 5.523-3.15 5.464" fill="#9c7e6a"/></g><g transform="translate(402.65 434.01)"><path d="m0 0c-0.815 1.127-0.493 0.866-1.399 2.386 0.099 0.76 0.534 1.74 1.763 0.674 1.129-1.146 2.003-2.491 2.588-3.97 0.279-1.473-0.047-0.738-0.147-1.747-1.035 0.766-1.82 0.704-2.961 2.557z" fill="#9c7e6a"/></g><g transform="translate(402.21 441.72)"><path d="m0 0c0.588-0.788 0.646-1.236 0.812-1.835-0.322 0.021-0.981 0.32-1.455 1.421z" fill="#9c7e6a"/></g><g transform="translate(433.16 368.39)"><path d="m0 0c-0.464 1.1-0.249 1.708 0.295 1.829 0.604-0.766 1.429-1.161 1.646-2.195 0.27-1.032 0.147-1.561-0.238-1.818-0.531 0.574-1.275 1.041-1.33 1.95z" fill="#9c7e6a"/></g><g transform="translate(434.3 367.96)"><path d="m0 0 0.361-0.224c-0.199 0.806 0.636-1.974-0.705-5e-3 -0.778 1.355 0.028 0.492 0.344 0.229" fill="#fff"/></g><g transform="translate(462.99 349.88)"><path d="m0 0-1.073 0.498c0.601-0.059 0.174 1.087-0.192 2.235-0.202 0.314-0.535 0.832-0.877 1.073 0.522-0.127 0.175 0.806 0.233 1.302l-1.199 1.377c1.56-7e-3 1.669 4.116 6.277-1.666l3.775-6.467-0.291 0.277c1.613-3.176 1.061-3.785 2.14-6.336l0.537-0.847-1.477 1.183c0.481-1.323-0.544 0.57-0.735 0.212l0.223-2.166c-0.457 0.626-0.395 0.903-0.528 1.293-1.121 1.375-0.64 0.052-0.646-0.41-0.67 1.425-1.962 2.487-3.791 4.363 0.238-0.563-3e-3 -0.461-0.139-0.547 0.216 0.137-0.221 1.013-0.298 1.423l-0.217 0.336-1.083 0.043c-0.722 1.407 0.925 0.586-0.639 2.824" fill="#9c7e6a"/></g><g transform="translate(427.38 411.03)"><path d="m0 0c-0.187 1.072-0.501 1.568-1.338 2.444l-0.469 0.396c-0.098-0.3 0.198 0.587 0.822-0.169-0.114 0.846-1.587 2.734-0.559 2.467-0.319 1.422-1.352 1.686-2.039 2.656 0.515 0.549 1.819-1.61 1.967-0.403-1.912 4.384 2.247-7e-3 1.706 2.212 0.1 0.06 0.613 0.581 1.544-0.924 0.31-0.039-0.151 0.821-0.154 1.054 1.125-0.466 3.557-4.086 3.902-3.635 0.761-0.46 1.435-1.676 2.14-2.153 0.12-0.197 0.733-1.416 1.487-1.88 0.156-2.018 2.391-2.021 2.069-3.606 0.568-1.256 1.382-1.476 1.676-1.759-0.144-0.296-1.056 0.534-0.83-0.502 2.592-2.15 0.977-3.127 3.381-6.269-0.723 0.734-0.534-0.322-0.073-1.173l0.511-0.83c-1.548 1.333 0.077-2.055-0.303-2.283 0.139-0.853-2.936 2.162-1.404-1.546 0.09-1.093-3.371 4.212-2.578 1.244l0.42-1.425c-1.252 1.325-0.519 2.23-1.863 3.271-0.916 0.357 0.336-1.399 0.214-1.964-0.274 0.539-1.401 4.284-2.848 4.265l-0.305-1.369c-0.484 1.075-0.835 2.289-1.521 3.482-1.563 2.019-0.427-1.21-1.272 0.359-0.082 0.67 0.211 1.088-0.786 2.32l-1.898 1.096c0.595 0.621-1.892 3.756-1.599 4.624" fill="#9c7e6a"/></g><g transform="translate(477.12 374.91)"><path d="m0 0c-0.161 0.189-0.371 0.483-0.379 0.288-0.908 1.728-1.124 3.641-2.546 5.803 0.718 0.366-2.124 5.13-0.692 4.317 0.154 0.515-1.375 2.825-0.056 1.52-0.058 0.405-0.34 0.922-0.627 1.452 1.519-0.782 1.337 1.613 3.378-0.48 0.563 0.075 2.048-2.946 2.237-1.972l0.245-0.973c1.189-1.841 2.431-2.293 3.354-5.162l1.316-2c0.272-1.413 1.172-3.419 2.331-5.905 0.223-1.002-0.591-1.003 0.722-3.19-1.114 0.771 0.647-2.349 0.848-3.382l-0.67 0.792 0.461-1.512c-0.394 0.644-0.657 1.411-1.004 1.677-0.433-0.222-1e-3 -1.58 0.386-2.93-0.192 0.354-0.519 0.863-0.581 1.251-1.002 1.292 0.079-1.055-0.406-0.819l-0.468 0.856-0.352-0.179-0.202 0.548c-1.182 1.611-0.594-0.302-0.868-0.44-0.342 0.712-0.507 1.744-1.211 2.472l-1.369 1.535c0.245-0.538 0.125-0.606 0-0.678l-1.143 2.742c-1.117 1.213 0.274-1.874-0.591-1.012 0.306 1.321-1.67 3.389-2.113 5.381" fill="#9c7e6a"/></g><g transform="translate(405.71 482.65)"><path d="m0 0c0.549-0.809 1.194-1.118 1.672-2.191 0.713-1.896-0.669-1.117-1.351-0.352-0.18 1.5-1.238 2.248-0.321 2.543" fill="#9c7e6a"/></g><g transform="translate(372.86 557.27)"><path d="m0 0c0.152 0.527 0.674-0.076 1.174-0.483 1.039-1.222 0.765-2.505 0.722-3.216-0.949-0.084-0.39 0.694-1.56 1.16-0.536 1.264-0.659 2.121-0.336 2.539" fill="#9c7e6a"/></g><g transform="translate(464.39 408.95)"><path d="m0 0c0.56-0.387 0.597 0.313 1.523-0.992 0.228-0.757 1.072-2.347 0.845-2.692l-0.315-0.165c-0.711 0.785-0.097 1.715-1.307 2.45l0.424-1.341c-0.52 1.072-1.16 2.066-1.17 2.74" fill="#9c7e6a"/></g><g transform="translate(433.25 471.91)"><path d="m0 0c-0.455 0.863-0.987 2.149-1.469 3.477-0.292 2.086 0.501 2.507 1.355 2.961 2.19-1.989 3.072-2.194 4.611-5.611 1.034-0.783 0.468-2.442 1.701-2.915-0.061-0.708-0.798-1.318 0.698-2.994-0.528 1.303-1.012-0.082-1.046-0.555l0.356-0.688c-0.167-0.089-0.903 1.08-0.907 0.395 0.822-2.244-1.067 0.572-1.04-0.551-0.02 0.445-0.355 0.949-0.621 1.457-0.481 0.647-0.543-0.043-0.853 4e-3l0.076-0.415-0.095 0.851-1.663 1.822-0.187 1.022-0.663 0.316z" fill="#9c7e6a"/></g><g transform="translate(441.84 461.91)"><path d="m0 0c-0.208 0.808 1.031 0.547-0.154 2.592 0.391-0.223 0.192 0.565 0.028 1.16l-0.451 0.882c0.56-0.825 0.567-0.166 0.82-0.257 0.051 0.454-0.491 1.11-0.784 1.82 0.516-0.603 0.659-0.352 1.176-0.963l0.147 0.931c0.258-0.512 0.569-0.586 0.901-1.095 0.025 1.988 2.064-1.412 2.928-1.641 0.956-0.44 1.94-3.91 3.034-3.837 0.606-3.645 3.14-5.309 4.013-9.716-0.109-0.052-0.177-0.292-0.539 0.172-0.197-0.525 0.788-2.234 1.3-2.881-0.26-0.124-0.723 0.545-1.141 0.997 1.374-3.511-0.904-1.523-0.683-2.982-0.767 1.635-0.668-0.061-1.363 0.91l0.185-1.007-0.738 1.827c-0.076-0.495-0.878 0.427-0.325-1.286-1.251 1.799-2.336 4.796-2.907 3.828 0.046 0.69-0.605 1.694-1.017 2.628-2.268 1.234-2.409 5.863-4.43 7.918" fill="#9c7e6a"/></g><g transform="translate(466.33 443.25)"><path d="m0 0c-0.43 1.58-1.393 2.197-1.619 2.295-0.058 0.643-0.339 1.384-0.767 2.303-0.518 0.842-0.52 0.185-0.749 0.289-0.302 1.172 1.337-0.219 0.11 2.026l-0.669 0.761 0.206 1.175-1.121 1.479c0.48-0.209 0.842 1.005-0.248 3.121l-1.253 2.04c0.012 0.24 0.289-0.079 0.504-0.409 0.414 0.6-1.899 3.716-0.605 2.984-1.447 2.591-2.003 5.377-2.839 6.934 0.674-0.335-0.258 1.422-0.344 2.05 0.218 0.094 0.664-0.597 0.805-0.317-1.061 2.357 0.763-0.546 0.252 1.174 0.67-0.328 2.03-2.346 1.876-0.69 0.562-2.576 1.841-2.857 2.623-4.468 0.697 0.741-1.547 3.213-1.422 4.553 1.327-2.001 1.876-5.014 3.104-4.903l-0.179 1.443c0.531-0.645 1.756-3.333 1.531-1.495l1.473-2.4 0.256 0.583c0.298-0.559 0.446-1.351 0.818-1.634 0.281-0.082 0.024 0.669-0.021 1.073 0.559-1.466 1.213-2.701 1.915-3.491l0.183 0.739 1.46-3.472c0.614 0.716 1.047-2.774 2.017-2.787 0.045-2.123 1.707-3.362 2.183-3.814-0.053-0.444-0.429-0.392 0.025-1.48 0.741-2.497 1.039-1.084 1.615-1.896l-0.55-0.656c0.318-1.194 1.077-2.581 1.634-3.638l0.148 0.065c0.449-1.09 0.138-2.945 1.353-3.943-0.178 0.142-0.073-0.243-0.023-0.637 0.429-1.554 1.111-1.695 1.561-2.777 0.012-0.425-2.381 3.264-0.994-0.436l1.79-3.976-1.719 2.886c-0.659-1.996 3.27-8.498 2.067-9.46-0.821 2.032-1.53 2.156-1.727 1.851-0.644-0.278 1.178-3.811 0.254-3.551-1.377 3.506-2.856 3.731-2.779 2.466-0.04-0.899 0.99-2.809 0.833-3.298-0.665 1.216-1.074 3.837-2.361 5.231l9e-3 -1.502c-0.215 0.97-1.102 2.56-1.692 3.37l-0.02-1.069c-0.361 0.907-0.473 2.154-1.148 2.514l-0.226-0.976c-0.469 0.891-0.127 1.255-0.815 2.265-0.383 0.47-1.332 1.783-0.995 0.429-0.074-0.462-0.518 2.121-1.482 2.581l-0.434-0.211c-0.23 1.007-0.037 1.754-1.149 3.626l-0.829-0.403c-0.179 0.774-0.013 1.311-0.622 2.365l-1.147 0.511c0.091 0.715 0.721 0.799-0.057 2.607" fill="#9c7e6a"/></g><g transform="translate(341.62 484.72)"><path d="m0 0c0.863 0.136 0.884 1.866 3.153-0.656 1.415-2.162 4.113-6.524 1.875-5.652l0.29-1.038-2.17 1.375c-0.543 1.769-2.258 1.995-2.717 3.877 0.179 0.361 0.593 0.889-0.431 2.094" fill="#9c7e6a"/></g><g transform="translate(348.37 482.49)"><path d="m0 0 0.26 1.365z" fill="#9c7e6a"/></g><g transform="translate(349.32 486.5)"><path d="m0 0-0.324-1.908-0.322 0.465 0.028-0.665-0.553 0.8z" fill="#9c7e6a"/></g><g transform="translate(348.41 491.11)"><path d="m0 0c-7e-3 -0.248-0.273 0.022-0.511 0.111 2e-3 0.503 0.182 0.626 0.024 1.236l-1.271 0.33c0.383 0.71-0.171 2.029-0.759 3.532l-0.335 0.256c-0.675 2.899 0.825 3.92 2.3 3.935 1.615-0.829 4.067-2.929 4.53-1.428 1.191-1.136 0.017-1.451 1.211-2.066 1.191-0.61 3.168-3.324 4.734-4.901 0.108-2.078 1.321-3.376 2.518-5.675 0.316-0.989-0.549-1.333 0.932-2.914l-1.272 1.013c0.026-1.176 1.476-2.578 2.126-3.807l-1.79 1.164c0.856-2.032-0.573-2.291-0.595-3.257-2.193 1.85-1.077-1.666-0.636-3.301-1.303 1.284-1.74 4.541-3.896 5.949 0.103-0.396 0.485-1.081 0.152-1.091-1.928 1.321-1.125 3.526-2.899 4.24l0.725-4.055c-1.646 4.14-1.687 6.74-5.288 10.729" fill="#9c7e6a"/></g><g transform="translate(349.52 487.34)"><path d="m0 0 0.039 1.211z" fill="#9c7e6a"/></g><g transform="translate(366.39 475.16)"><path d="m0 0-0.106-0.072-0.89 1.325z" fill="#9c7e6a"/></g></g></g><g clip-path="url(#q)"><g transform="translate(101.83 130.31)"><path d="m0 0s-14.176-6.419-18.857-10.164-16.717-9.897-16.717-9.897 2.942-7.757 10.966-17.519c8.024-9.763 11.903-13.374 11.903-13.374l3.21 2.541s3.611-2.541 3.076-5.484c-0.535-2.942 0.133-4.814 3.744-9.361s13.775-17.52 21.933-19.125 22.335-0.668 23.806 0.134c0 0 2.407 10.966 1.872 13.106s-4.28 7.49-8.827 8.292-9.094 2.14-9.094 2.14-1.204 3.878-2.14 4.547c0 0 1.471 9.629 0.936 13.508-0.534 3.878-2.407 11.367 1.739 15.781l2.14 1.471s-28.353 23.538-29.69 23.404" fill="#1e2123"/></g></g><g clip-path="url(#p)"><g transform="translate(74.885 119.54)"><path d="m0 0s0.902-1.653 2.481-4.547c1.574-2.893 3.905-6.984 6.814-11.807 1.468-2.403 3.094-4.984 4.929-7.615 0.922-1.31 1.903-2.631 2.978-3.896 1.067-1.231 2.257-2.554 3.561-3.239 0.349-0.161 0.776-0.329 1.198-0.551l0.668-0.374 0.605-0.41c0.789-0.571 1.506-1.234 2.154-1.951 1.284-1.448 2.282-3.099 3.146-4.796 1.712-3.405 2.904-7.031 4.228-10.507 0.669-1.712 1.371-3.468 2.365-4.769 1.201-1.491 2.257-3.027 3.416-4.403 2.272-2.791 5.04-5.027 8.182-6.337 3.118-1.343 6.447-1.906 9.611-2.038 3.171-0.136 6.194 0.155 8.999 0.45 2.774 0.309 5.314 0.762 7.527 1.282 2.217 0.524 4.087 1.211 5.56 1.912 1.469 0.708 2.539 1.439 3.173 2.045 0.645 0.599 0.855 1.034 0.855 1.034s-0.175-0.45-0.779-1.107c-0.6-0.654-1.612-1.511-3.074-2.309-1.457-0.801-3.323-1.611-5.541-2.273-2.22-0.657-4.756-1.283-7.585-1.699-2.792-0.41-5.869-0.857-9.176-0.797-3.286 0.054-6.838 0.49-10.242 1.902-3.421 1.352-6.543 3.776-8.978 6.701-1.238 1.455-2.311 2.998-3.473 4.419-1.292 1.692-1.975 3.499-2.695 5.27-1.371 3.552-2.491 7.122-4.105 10.355-1.624 3.218-3.626 6.127-6.837 7.372-0.929 0.497-1.622 1.13-2.276 1.768-0.644 0.645-1.224 1.314-1.767 1.994-1.084 1.36-2.044 2.743-2.941 4.108-1.795 2.728-3.325 5.395-4.688 7.879-2.735 4.964-4.739 9.234-6.162 12.209-1.4 2.987-2.131 4.725-2.131 4.725" fill="#272b2d"/></g><g transform="translate(81.706 122.35)"><path d="m0 0s0.343-0.228 0.921-0.743c0.571-0.518 1.391-1.319 2.231-2.509 0.833-1.188 1.716-2.751 2.317-4.712 0.156-0.473 0.317-0.962 0.483-1.466 0.199-0.481 0.38-0.972 0.609-1.476 0.454-1.01 0.949-2.067 1.526-3.141 1.144-2.152 2.515-4.42 4.098-6.711 0.794-1.143 1.657-2.281 2.595-3.38 0.937-1.094 1.964-2.165 3.096-2.987 0.285-0.195 0.57-0.413 0.86-0.516l0.505-0.235 0.536-0.235c0.338-0.117 0.773-0.429 1.16-0.667 0.392-0.258 0.682-0.541 1.028-0.814 1.273-1.145 2.289-2.485 3.2-3.881 1.814-2.801 3.238-5.838 4.414-8.969 1.182-3.161 1.859-6.401 2.829-9.43 0.961-3.023 2.025-6 3.748-8.327 0.851-1.158 1.883-2.112 3.062-2.672 0.299-0.115 0.597-0.228 0.893-0.341 0.355-0.091 0.708-0.182 1.058-0.271 0.699-0.161 1.361-0.319 2.051-0.443 2.733-0.514 5.36-0.826 7.791-0.946 2.431-0.11 4.666-0.046 6.628 0.185 1.97 0.205 3.635 0.686 4.962 1.18 1.312 0.532 2.288 1.104 2.889 1.573 0.594 0.488 0.911 0.749 0.911 0.749s-0.293-0.29-0.842-0.832c-0.256-0.299-0.671-0.541-1.123-0.88-0.44-0.364-1.037-0.623-1.68-0.968-1.32-0.598-3.002-1.21-5.001-1.558-1.992-0.379-4.279-0.603-6.771-0.597-2.494-5e-3 -5.193 0.181-8.022 0.624-0.703 0.1-1.439 0.247-2.157 0.386-0.353 0.077-0.709 0.155-1.067 0.233-0.394 0.133-0.79 0.266-1.189 0.4-1.541 0.653-2.795 1.824-3.793 3.11-1.994 2.615-3.192 5.702-4.189 8.814-1.02 3.121-1.721 6.328-2.863 9.318-1.108 3.021-2.473 5.973-4.157 8.612-0.848 1.309-1.771 2.559-2.835 3.56-0.272 0.221-0.549 0.499-0.813 0.676-0.284 0.168-0.459 0.371-0.86 0.527l-0.53 0.246c-0.075 0.031 0.064-0.024 0.035-0.011l-0.039 0.018-0.078 0.037-0.156 0.074-0.31 0.151c-0.436 0.185-0.764 0.446-1.109 0.693-1.332 1.019-2.393 2.177-3.336 3.367-0.944 1.189-1.792 2.395-2.566 3.598-1.554 2.401-2.831 4.778-3.886 7.031-0.53 1.126-0.999 2.225-1.392 3.294-0.2 0.533-0.362 1.082-0.532 1.596-0.132 0.518-0.26 1.02-0.385 1.507-0.445 1.91-1.194 3.481-1.926 4.694-0.75 1.207-1.459 2.086-1.983 2.645-0.525 0.561-0.846 0.82-0.846 0.82" fill="#272b2d"/></g></g><g clip-path="url(#o)"><g transform="translate(300.84 65.178)"><path d="m0 0s-3.21-7.757-4.28-12.571c-1.07-4.815 0.268-4.949-0.936-6.821-1.203-1.872-2.407-10.699-2.407-10.699s2.541-7.623 35.24-7.322l0.201 6.72s12.838-0.201 18.054-3.912l0.702-3.611s28.085-5.516 42.629 0.502c0 0 8.627 3.51 11.535 7.121 0 0 0.101 9.429-1.103 11.736s-2.006 5.115-7.824 6.118c-5.817 1.003-16.048-0.601-19.759 1.104-3.712 1.705-23.873 14.444-27.183 19.559 0 0-44.2-5.517-44.869-7.924" fill="#171a1d"/></g></g><g clip-path="url(#n)"><g transform="translate(293.88 56.886)"><path d="m0 0s0.388-0.249 1.114-0.716c0.716-0.482 1.774-1.184 3.035-2.196 1.243-1.009 2.801-2.294 4.038-4.201 1.355-1.715 3.429-3.257 5.869-4.445 1.219-0.608 2.567-1.079 3.99-1.405 1.421-0.349 2.942-0.464 4.481-0.376 1.56 0.046 3.073 0.489 4.631 1.028 1.547 0.582 3.22 1.069 4.899 1.499 3.376 0.837 6.985 1.388 10.688 1.138 1.836-0.13 3.744-0.522 5.44-1.444 1.609-0.87 3.254-1.629 4.935-2.387 3.344-1.513 6.742-2.917 10.132-4.163 3.389-1.231 6.79-2.329 10.138-2.897 0.417-0.045 0.833-0.09 1.247-0.135 0.414-0.043 0.812-2e-3 1.216-9e-3 0.799 0.058 1.669 0.191 2.458 0.33 1.614 0.269 3.2 0.639 4.731 1.001 3.063 0.754 5.923 1.62 8.527 2.514 2.601 0.904 4.965 1.804 6.995 2.743 2.048 0.907 3.75 1.867 5.101 2.733 1.334 0.893 2.296 1.718 2.886 2.343 0.549 0.666 0.841 1.021 0.841 1.021s-0.278-0.368-0.8-1.058c-0.57-0.647-1.496-1.531-2.818-2.467-1.333-0.913-3.019-1.934-5.05-2.909-2.014-1.011-4.363-1.99-6.967-2.936-2.603-0.949-5.462-1.873-8.534-2.69-1.542-0.395-3.118-0.795-4.777-1.105-0.844-0.165-1.638-0.3-2.528-0.369-0.442 1e-3 -0.899-0.042-1.337 0-0.437 0.045-0.877 0.09-1.318 0.135-3.471 0.567-6.9 1.658-10.329 2.878-3.424 1.235-6.85 2.622-10.225 4.13-1.673 0.765-3.37 1.563-4.984 2.448-1.534 0.847-3.287 1.228-5.055 1.365-3.544 0.262-7.089-0.248-10.406-1.05-1.669-0.415-3.261-0.881-4.839-1.431-1.584-0.518-3.238-0.966-4.86-0.981-1.616-0.063-3.2 0.09-4.666 0.478-1.47 0.365-2.85 0.878-4.092 1.525-2.495 1.266-4.553 2.886-5.925 4.738-1.161 1.915-2.643 3.212-3.856 4.262-1.227 1.038-2.245 1.794-2.942 2.301-0.707 0.496-1.084 0.76-1.084 0.76" fill="#1e2123"/></g><g transform="translate(293.21 47.257)"><path d="m0 0s1.467-1.394 4.353-3.385c1.447-0.977 3.252-2.128 5.487-3.042 1.106-0.48 2.338-0.835 3.64-1.081 1.281-0.201 2.764-0.236 4.24-0.285 2.995-0.067 6.249 7e-3 9.682 0.17 3.453 0.187 7.005 0.446 10.75 1.063 0.43 0.073 1.068 0.032 1.576 0.024 0.497-0.054 1.011-0.077 1.495-0.168 0.987-0.143 1.955-0.347 2.915-0.581 1.922-0.461 3.819-1.029 5.712-1.628 1.893-0.589 3.79-1.224 5.678-1.748 1.851-0.534 3.812-0.789 5.782-1.052 3.947-0.519 7.931-0.826 11.851-0.937 3.92-0.087 7.787-0.07 11.498 0.289 3.709 0.355 7.272 0.901 10.571 1.749 1.62 0.497 3.235 0.906 4.696 1.547 0.731 0.307 1.496 0.55 2.168 0.895 0.706 0.341 1.399 0.676 2.078 1.004 2.625 1.376 4.953 2.827 6.848 4.335 1.901 1.501 3.341 3.073 4.327 4.504 0.987 1.433 1.547 2.702 1.808 3.602 0.267 0.901 0.267 1.412 0.267 1.412s0.039-0.509-0.162-1.439c-0.202-0.923-0.647-2.27-1.587-3.787-0.925-1.52-2.312-3.214-4.17-4.859-1.85-1.655-4.144-3.277-6.81-4.792-0.665-0.355-1.344-0.717-2.036-1.087-0.711-0.4-1.467-0.673-2.22-1.025-0.754-0.344-1.527-0.679-2.343-0.929-0.809-0.267-1.624-0.567-2.464-0.82-3.371-0.972-7.011-1.651-10.799-2.062-3.79-0.419-7.727-0.555-11.717-0.468-3.991 0.091-8.036 0.375-12.064 0.886-2.009 0.282-4.051 0.555-6.05 1.142-1.967 0.56-3.851 1.204-5.733 1.802-1.879 0.596-3.736 1.184-5.578 1.664-0.92 0.242-1.838 0.451-2.742 0.598-0.456 0.094-0.898 0.117-1.344 0.176-0.215 0.019-0.404 0.013-0.607 0.025l-0.3 0.014-0.35-0.032c-3.703-0.565-7.443-0.718-10.89-0.803-3.472-0.079-6.756-0.019-9.787 0.174-1.532 0.121-2.947 0.184-4.372 0.487-1.38 0.339-2.644 0.787-3.758 1.345-2.253 1.072-4.008 2.339-5.414 3.405-1.404 1.076-2.416 2.027-3.102 2.675-0.681 0.654-1.023 1.023-1.023 1.023" fill="#1e2123"/></g></g><g clip-path="url(#m)"><g transform="translate(214.31 308.31)"><path d="m0 0s88.669-13.24 99.1-15.647c10.432-2.408 12.839 5.416 16.049 3.811 3.209-1.605 6.419-6.018 6.62-11.033 0 0 34.705-18.256 38.918-20.863 4.212-2.608 3.009-13.441 3.009-16.45s-7.423-56.371-12.037-67.204c0 0-23.471-13.641-25.477-13.842-2.006-0.2-68.407 24.474-68.407 24.474l-76.231 25.879s-0.602 18.456 1.003 25.477 15.046 63.593 17.453 65.398" fill="#191c1f"/></g></g><g clip-path="url(#l)"><g transform="translate(380.61 260.57)"><path d="m0 0s-0.31 0.259-0.932 0.674c-0.622 0.411-1.567 0.982-2.833 1.489-1.255 0.491-2.907 0.885-4.606 0.551-0.832-0.213-1.674-0.553-2.391-1.194-0.187-0.146-0.376-0.294-0.567-0.444-0.177-0.176-0.357-0.353-0.539-0.533-0.374-0.32-0.74-0.785-1.127-1.251-3.012-3.667-6.337-8.163-9.597-13.146-1.622-2.496-3.23-5.123-4.664-7.87-0.723-1.37-1.376-2.783-1.917-4.211l-0.37-1.062-0.327-1.152c-0.226-0.771-0.407-1.531-0.612-2.297-1.578-6.17-3.032-12.414-4.401-18.249-1.351-5.845-2.611-11.3-3.691-15.976-0.298-1.163-0.45-2.308-0.787-3.353-0.323-1.048-0.63-2.042-0.919-2.976-0.577-1.869-1.08-3.498-1.494-4.839-0.836-2.682-1.357-4.203-1.357-4.203s0.229 1.589 0.63 4.37c0.21 1.388 0.466 3.073 0.759 5.007 0.147 0.966 0.303 1.995 0.467 3.08 0.151 1.087 0.513 2.184 0.751 3.361 1.081 4.678 2.342 10.136 3.693 15.984 1.373 5.848 2.822 12.072 4.415 18.304 0.209 0.779 0.401 1.577 0.624 2.34l0.328 1.153 0.414 1.199c0.587 1.552 1.273 3.026 2.019 4.441 1.482 2.839 3.117 5.506 4.763 8.04 3.31 5.059 6.654 9.582 9.736 13.334 0.382 0.454 0.74 0.917 1.207 1.385 0.222 0.228 0.442 0.453 0.659 0.676 0.245 0.197 0.52 0.359 0.777 0.531 1.04 0.676 2.235 0.985 3.312 1.086 2.209 0.114 3.923-0.671 5.155-1.389 1.247-0.738 2.072-1.504 2.621-2.023 0.545-0.528 0.801-0.837 0.801-0.837" fill="#272b30"/></g><g transform="translate(368.37 266.99)"><path d="m0 0s-3.08 1.129-7.585 3.059c-2.257 0.957-4.871 2.111-7.652 3.387-1.387 0.647-2.833 1.289-4.279 1.989l-4.393 2.101c-1.462 0.725-2.924 1.45-4.363 2.163-1.444 0.704-2.839 1.45-4.203 2.143-2.72 1.402-5.24 2.75-7.384 3.938-4.297 2.357-7.083 4.089-7.083 4.089s3.081-1.127 7.586-3.057c2.257-0.956 4.871-2.11 7.652-3.387 1.387-0.647 2.834-1.286 4.278-1.99 1.449-0.693 2.921-1.397 4.393-2.102 1.461-0.725 2.923-1.45 4.362-2.164 1.443-0.707 2.839-1.45 4.203-2.143 2.719-1.404 5.24-2.751 7.384-3.939 4.297-2.357 7.084-4.087 7.084-4.087" fill="#272b30"/></g></g><g clip-path="url(#k)"><g transform="translate(315.61 355.86)"><path d="m0 0 11.234 12.438s-5.216-33.301-3.009-40.523 5.416-30.091 6.219-35.307c0.802-5.216 4.614-46.742 4.814-48.948 0.201-2.207 2.608-10.632 2.408-16.851-0.201-6.219 3.009-76.833 3.009-76.833l6.82-78.839s-20.261-7.422-28.887-8.024-18.255 1.003-18.255 1.003-5.617 40.122-6.219 59.38c0 0-3.812 33.903-5.015 44.735-1.204 10.833-0.803 25.478-1.605 29.49-0.803 4.012-10.432 38.717-12.839 44.133-2.407 5.417-8.827 18.657-8.827 18.657s-10.231-32.097-24.073-46.14c-13.842-14.042-46.741-46.34-51.957-51.757-5.216-5.416-53.362-62.79-53.362-62.79s-32.097 26.079-35.106 27.885l-3.009 1.805s28.687 37.514 35.708 43.733c7.021 6.218 38.717 44.133 42.328 47.343s16.049 14.845 18.456 16.249 1.605 1.404 1.605 1.404 7.021 13.441 11.836 17.854c4.814 4.414 3.611 3.411 5.216 9.429 1.604 6.018 6.018 25.678 5.015 31.696s2.407 22.869 2.407 22.869 89.471 37.714 95.088 35.909" fill="#0d0f13"/></g></g><g clip-path="url(#j)"><g transform="translate(297.52 296.73)"><path d="m0 0s0.905-3.58 2.49-9.844c1.574-6.267 3.817-15.221 6.429-25.987 1.301-5.385 2.7-11.22 4.08-17.425 1.468-6.202 2.298-12.9 3.209-19.753 1.782-13.735 3.499-28.401 5.163-43.075 0.826-7.338 1.64-14.676 2.376-21.909 0.383-3.616 0.672-7.218 0.971-10.763 0.299-3.549 0.595-7.055 0.885-10.503 1.16-13.794 2.242-26.669 3.169-37.704 0.91-11.037 1.668-20.234 2.199-26.672 0.252-3.22 0.45-5.751 0.585-7.476 0.136-1.725 0.175-2.647 0.175-2.647s-0.047 0.922-0.197 2.646c-0.15 1.723-0.37 4.252-0.649 7.469-0.585 6.434-1.421 15.624-2.424 26.653-1.021 11.026-2.212 23.891-3.488 37.675-0.32 3.446-0.645 6.949-0.975 10.495-0.329 3.55-0.647 7.133-1.06 10.741-0.797 7.22-1.673 14.551-2.561 21.879-1.787 14.654-3.628 29.304-5.524 43.009-0.972 6.856-1.844 13.452-3.353 19.598-1.427 6.17-2.874 11.99-4.22 17.358-2.7 10.735-5.018 19.666-6.645 25.916-1.636 6.247-2.571 9.817-2.571 9.817z" fill="#191c1f"/></g><g transform="translate(254.87 285.25)"><path d="m0 0s-0.683-3.457-2.109-9.432c-0.714-2.989-1.633-6.607-2.77-10.736-1.153-4.125-2.542-8.759-4.348-13.731-0.226-0.621-0.455-1.248-0.686-1.882-0.255-0.626-0.513-1.259-0.773-1.898-0.265-0.636-0.51-1.287-0.8-1.929-0.298-0.639-0.599-1.283-0.902-1.933-0.562-1.317-1.355-2.573-2.057-3.885-0.837-1.229-1.722-2.579-2.728-3.665-1.989-2.309-4.298-4.501-6.803-6.476-2.505-1.994-5.239-3.778-8.002-5.545-1.38-0.889-2.765-1.779-4.095-2.742-1.334-0.957-2.623-1.985-3.713-3.191-2.237-2.5-4.57-5.05-6.908-7.57-4.693-5.052-9.46-10.183-14.228-15.315-2.375-2.578-4.728-5.147-6.983-7.807-2.329-2.615-4.682-5.177-7.007-7.721-4.668-5.075-9.261-10.07-13.707-14.904-8.905-9.654-17.216-18.664-24.34-26.387-7.111-7.734-13.037-14.18-17.186-18.691-2.06-2.269-3.679-4.051-4.783-5.266-1.085-1.232-1.664-1.889-1.664-1.889s0.573 0.662 1.647 1.904c1.093 1.225 2.696 3.022 4.737 5.308 4.108 4.549 9.976 11.047 17.018 18.845 7.055 7.786 15.286 16.87 24.104 26.603 4.402 4.872 8.95 9.908 13.572 15.024 2.303 2.567 4.629 5.144 6.917 7.76 2.233 2.683 4.589 5.302 6.937 7.896 4.722 5.174 9.443 10.348 14.092 15.442 2.328 2.555 4.591 5.073 6.837 7.628 1.169 1.313 2.515 2.403 3.878 3.4 1.363 1.005 2.757 1.918 4.129 2.819 2.752 1.794 5.418 3.57 7.842 5.536 2.439 1.962 4.616 4.065 6.536 6.331 1.031 1.14 1.747 2.302 2.553 3.489 0.662 1.273 1.407 2.464 1.947 3.762 0.29 0.635 0.577 1.266 0.862 1.89 0.277 0.629 0.513 1.273 0.767 1.9 0.25 0.629 0.497 1.252 0.742 1.869 0.223 0.627 0.443 1.248 0.661 1.863 1.738 4.921 3.076 9.532 4.184 13.637 1.093 4.111 1.974 7.716 2.657 10.695 1.367 5.961 2.011 9.383 2.011 9.383z" fill="#191c1f"/></g></g><g clip-path="url(#i)"><g transform="translate(330.12 568.7)"><path d="m0 0s-43.064 39.052-45.204 41.191c-2.139 2.14-6.553 7.891-9.762 7.356-3.21-0.535-21.131-14.444-23.137-16.316s-24.876-23.137-26.882-30.894c-2.006-7.756 0.937-14.31 4.815-16.316 0 0-10.833-19.793-14.845-34.237-4.012-14.443-7.623-37.179-9.362-40.656-1.738-3.477-1.337-7.623-2.273-9.094s-2.274-3.745-3.611-6.286c-1.338-2.541-3.477-10.164-3.611-12.438-0.134-2.273-15.246-48.146-17.787-52.96-2.541-4.815-19.526-55.769-19.526-55.769s4.948-7.489 12.304-11.501c7.355-4.013 67.805-29.824 73.823-30.894 6.019-1.07 22.87-5.884 28.62-9.094 5.751-3.21 28.219-9.094 31.161-8.961 2.943 0.134 5.751 26.079 7.089 31.161 1.337 5.082 11.769 50.018 12.036 51.222 0 0-1.872-21.799-1.739-24.608 0.134-2.808 0.803-9.495 1.07-12.705 0.268-3.21 5.751-26.748 5.751-29.021h9.496l5.884 64.596 6.553 77.969s2.14 23.003-0.401 32.097-9.362 35.441-13.24 51.088c0 0-2.14 7.222-3.477 8.693-1.338 1.471-3.344 10.432-4.681 12.973-1.338 2.541-2.274 2.942-2.274 5.349 0 2.408 1.605 17.386 3.21 18.055" fill="#33363f"/></g></g><g clip-path="url(#h)"><g transform="translate(287.33 602.81)"><path d="m0 0s-4.413 13.508-7.222 15.246c-2.808 1.739 0.1 0.401 0.1 0.401s-6.62 5.718-6.62-1.203 2.006-12.639 4.414-14.645c2.407-2.006 3.912-3.41 4.313-6.118s1.504-19.76 1.203-21.365c-0.3-1.605 6.119-7.924 7.222-9.428 1.104-1.505 12.639-13.943 14.544-15.347 1.906-1.404 3.611-4.012 4.815-4.714s3.41 6.72 3.41 6.72l-1.705 20.863z" fill="#1b1f3c"/></g><g transform="translate(323.84 576.33)"><path d="m0 0 10.03-8.225-4.714-17.352s0.903-12.338 2.307-16.751c1.404-4.414 7.122-26.982 7.122-26.982s7.121-65.699 4.513-82.149c-2.608-16.449-9.228-62.99-11.434-72.419-2.207-9.429-1.204-43.532-0.602-47.544s-4.614-11.635-4.614-11.635-8.225 43.532-7.824 47.343c0.401 3.812 6.821 31.496 7.824 35.107 1.003 3.61 7.222 42.528 8.225 50.753s0.401 59.581 0.2 65.198c-0.2 5.617 0.803 19.86-1.604 27.884-2.408 8.024-10.432 19.258-10.432 19.258l-9.629 24.274s9.629 13.842 10.632 13.24" fill="#1b1f3c"/></g><g transform="translate(227.55 550.92)"><path d="m0 0s2.14 0.401 3.611 2.808c1.471 2.408 5.884 9.095 10.164 11.769 4.28 2.675 14.979 7.757 18.857 8.292 3.879 0.535 18.724-2.14 22.067-6.285 0 0-7.489 5.082-20.729 8.96-13.241 3.878-18.323 4.28-18.323 4.28l-0.133-6.152s5.349 3.343 9.495 2.407 8.559-2.006 8.559-2.006-11.501-3.611-16.048-4.815c-4.547-1.203-14.578-5.617-17.119-5.75-2.541-0.134-10.164-2.675-8.559-6.019 1.605-3.343 8.158-7.489 8.158-7.489" fill="#1b1f3c"/></g><g transform="translate(284.57 572.13)"><path d="m0 0c-0.432-2.079-0.893-4.139-1.409-6.199-0.258-1.03-0.529-2.058-0.841-3.087-0.152-0.514-0.321-1.028-0.511-1.548-0.105-0.263-0.185-0.515-0.325-0.791-0.068-0.138-0.119-0.264-0.202-0.412-0.103-0.161-0.213-0.319-0.326-0.471l-0.456 1.29c1.004-0.201 1.911-0.491 2.829-0.912 0.454-0.213 0.898-0.469 1.32-0.783 0.212-0.153 0.412-0.336 0.606-0.526 0.186-0.204 0.375-0.433 0.497-0.606 1.096-1.484 2.225-2.932 3.411-4.338 0.594-0.7 1.195-1.397 1.819-2.07 0.615-0.682 1.257-1.337 1.91-1.981 0.65-0.647 1.331-1.256 2.019-1.859 0.706-0.579 1.42-1.148 2.176-1.652 0.754-0.502 1.539-0.959 2.367-1.304 0.816-0.347 1.694-0.54 2.614-0.733 1.817-0.409 3.614-0.871 5.399-1.385 1.784-0.516 3.554-1.078 5.295-1.723 1.735-0.652 3.461-1.358 5.062-2.295-1.632 0.88-3.375 1.522-5.127 2.111-1.756 0.582-3.538 1.08-5.331 1.531-1.793 0.449-3.601 0.847-5.412 1.188-0.896 0.156-1.849 0.327-2.75 0.672-0.897 0.338-1.735 0.789-2.539 1.284-0.805 0.497-1.561 1.057-2.308 1.628-0.727 0.593-1.449 1.193-2.135 1.83-0.689 0.634-1.367 1.279-2.016 1.951-0.66 0.663-1.294 1.348-1.923 2.039-1.252 1.384-2.454 2.818-3.611 4.275-0.483 0.67-1.153 1.061-1.943 1.415-0.776 0.328-1.657 0.572-2.475 0.705l-0.976 0.159 0.52 1.131c0.032 0.068 0.067 0.13 0.108 0.189 0.043 0.083 0.088 0.204 0.133 0.303 0.094 0.196 0.167 0.449 0.249 0.678 0.155 0.474 0.299 0.966 0.427 1.466 0.265 0.996 0.496 2.014 0.714 3.034 0.436 2.04 0.822 4.105 1.175 6.163z" fill="#1b1f3c"/></g><g transform="translate(223.63 550.15)"><path d="m0 0s0.228 0.221 0.67 0.65c0.446 0.415 1.109 1.025 2.004 1.779 1.795 1.498 4.487 3.642 8.255 5.862 3.766 2.179 8.642 4.548 14.734 5.56 0.751 0.165 1.541 0.177 2.328 0.273 0.403 0.037 0.81 0.075 1.22 0.113 0.391 7e-3 0.786 0.015 1.183 0.022 1.657-6e-3 3.35-0.157 5.046-0.45 3.399-0.606 6.853-1.787 10.199-3.508 3.334-1.74 6.578-4.013 9.445-6.899 2.836-2.885 5.385-6.41 6.662-10.635 0.617-2.104 0.919-4.365 0.666-6.638-0.224-2.139-0.537-4.349-0.915-6.546-0.752-4.388-1.685-8.829-2.742-13.319-1.057-4.489-2.222-9.031-3.514-13.599-1.306-4.565-2.685-9.169-4.469-13.712-0.207-0.571-0.481-1.13-0.73-1.693-0.23-0.565-0.541-1.123-0.872-1.677l-0.249-0.426-0.269-0.367-0.545-0.733c-0.386-0.486-0.769-0.98-1.163-1.444-1.562-1.886-3.185-3.7-4.676-5.61-1.485-1.907-2.885-3.897-3.861-6.071-0.202-0.555-0.478-1.092-0.61-1.665l-0.24-0.849-0.138-0.865c-0.168-1.137-0.034-2.348-0.093-3.618-0.201-5.085-2.169-9.741-3.922-14.273-0.903-2.275-1.718-4.543-2.468-6.864-0.752-2.312-1.502-4.617-2.248-6.913-2.908-9.206-5.709-18.304-7.755-27.257-0.466-2.247-0.932-4.464-1.082-6.713-0.153-2.248-0.677-4.492-1.117-6.65-0.975-4.331-2.104-8.518-3.219-12.588-1.137-4.063-2.243-8.015-3.313-11.837-1.06-3.823-2.121-7.513-2.92-11.096-0.212-0.902-0.343-1.774-0.448-2.679-0.11-0.88-0.256-1.852-0.899-2.561-0.141-0.193-0.362-0.296-0.551-0.432-0.216-0.077-0.426-0.193-0.649-0.223-0.442-0.101-0.885-0.126-1.318-0.127-0.869-7e-3 -1.717 0.053-2.554 0.082-0.837 0.036-1.662 0.044-2.477 0.036-0.808-0.033-1.623-0.057-2.418-0.053-1.611 0.051-3.133 0.392-4.578 0.782-1.439 0.405-2.832 0.798-4.177 1.177-1.352 0.343-2.671 0.61-3.953 0.764-2.564 0.317-4.959 0.173-7.073-0.172-2.113-0.363-3.967-0.873-5.615-1.144-1.644-0.288-3.058-0.457-4.212-0.445-1.141 4e-3 -2.069 0.233-2.459 0.709-0.187 0.243-0.176 0.493-0.157 0.636 0.022 0.15 0.062 0.219 0.062 0.219s-0.04-0.069-0.061-0.219c-0.018-0.143-0.027-0.392 0.16-0.633 0.391-0.47 1.316-0.692 2.456-0.69 1.151-5e-3 2.563 0.174 4.202 0.471 1.643 0.281 3.493 0.803 5.611 1.181 2.117 0.359 4.521 0.52 7.101 0.218 1.29-0.148 2.618-0.407 3.977-0.743 1.347-0.371 2.743-0.754 4.186-1.151 1.44-0.38 2.956-0.706 4.528-0.746 0.795 1e-3 1.591 0.03 2.415 0.069 0.82 0.013 1.651 0.01 2.491-0.021 0.839-0.023 1.689-0.078 2.541-0.065 0.824 0.03 1.77 0.068 2.319 0.711 0.559 0.621 0.709 1.524 0.809 2.403 0.097 0.885 0.23 1.817 0.435 2.71 0.781 3.609 1.818 7.302 2.855 11.134 1.045 3.829 2.125 7.787 3.236 11.857 1.089 4.073 2.19 8.264 3.133 12.583 0.427 2.18 0.922 4.316 1.064 6.587 0.138 2.269 0.597 4.536 1.051 6.793 1.999 9.011 4.744 18.13 7.597 27.368 0.733 2.304 1.469 4.617 2.207 6.937 0.731 2.315 1.552 4.646 2.439 6.922 1.734 4.544 3.615 9.157 3.768 13.964 0.055 1.178-0.098 2.437 0.078 3.732l0.147 0.954 0.254 0.923c0.144 0.626 0.428 1.193 0.643 1.79 1.022 2.314 2.457 4.369 3.957 6.323 1.507 1.955 3.128 3.791 4.658 5.661 0.391 0.467 0.748 0.936 1.116 1.403l0.536 0.732 0.267 0.368 0.203 0.364c0.287 0.491 0.566 0.99 0.791 1.55 0.236 0.545 0.493 1.074 0.695 1.642 1.721 4.465 3.071 9.068 4.34 13.614 1.256 4.555 2.388 9.087 3.412 13.563 1.024 4.475 1.923 8.901 2.64 13.25 0.359 2.171 0.649 4.302 0.862 6.47 0.215 2.04-0.07 4.099-0.649 6.03-1.196 3.882-3.615 7.212-6.336 9.94-2.747 2.733-5.872 4.894-9.072 6.538-3.212 1.626-6.514 2.728-9.727 3.28-1.613 0.267-3.186 0.395-4.708 0.393-0.397-9e-3 -0.791-0.019-1.182-0.029-0.37-0.038-0.737-0.076-1.101-0.114-0.742-0.097-1.483-0.107-2.195-0.271-5.752-0.99-10.43-3.288-14.051-5.415-3.625-2.166-6.225-4.264-7.947-5.721-0.861-0.733-1.493-1.322-1.914-1.72-0.409-0.402-0.62-0.609-0.62-0.609z" fill="#1b1f3c"/></g><g transform="translate(212.17 467.86)"><path d="m0 0s1.231 0.68 3.213 1.3c0.495 0.151 1.033 0.32 1.611 0.454 0.578 0.133 1.186 0.301 1.827 0.396 1.275 0.244 2.657 0.41 4.048 0.47 0.694 0.042 1.396 0.016 2.082 8e-3 0.688-0.016 1.365-0.116 2.017-0.168 0.654-0.089 1.281-0.218 1.871-0.334 0.59-0.152 1.139-0.321 1.64-0.478 0.498-0.183 0.941-0.392 1.33-0.566 0.396-0.152 0.705-0.389 0.966-0.545 0.517-0.334 0.793-0.537 0.793-0.537s-0.354 0.053-0.94 0.167c-0.295 0.053-0.635 0.149-1.049 0.185-0.41 0.045-0.863 0.107-1.353 0.176-0.502 0.028-1.04 0.06-1.6 0.12-0.571 0.012-1.17 0.019-1.785 0.056-0.62-6e-3 -1.26-0.011-1.911-0.016-0.653-0.038-1.313-0.014-1.976-0.066-0.664-0.029-1.328-0.053-1.983-0.1-0.655-0.039-1.303-0.061-1.929-0.115-1.261-0.084-2.438-0.163-3.447-0.231-2.027-0.144-3.425-0.176-3.425-0.176" fill="#1b1f3c"/></g><g transform="translate(225.81 459.84)"><path d="m0 0s0.76 0.684 2.183 1.148c0.351 0.132 0.743 0.224 1.162 0.317 0.42 0.063 0.868 0.171 1.336 0.176 0.467 0.024 0.955 0.057 1.447 9e-3 0.496-9e-3 0.989-0.108 1.485-0.188 0.495-0.086 0.973-0.247 1.446-0.385 0.469-0.151 0.903-0.38 1.333-0.558 0.423-0.196 0.8-0.454 1.163-0.672 0.374-0.202 0.667-0.493 0.957-0.72 0.586-0.448 0.976-0.94 1.253-1.267 0.272-0.333 0.411-0.535 0.411-0.535s-0.245 0.07-0.644 0.213c-0.198 0.073-0.44 0.157-0.701 0.271-0.257 0.12-0.579 0.198-0.898 0.326-0.332 0.105-0.664 0.267-1.04 0.374-0.374 0.111-0.759 0.242-1.153 0.374-0.401 0.109-0.815 0.221-1.235 0.335-0.428 0.077-0.845 0.219-1.28 0.283-0.431 0.078-0.86 0.174-1.291 0.222-0.428 0.065-0.851 0.13-1.266 0.161-0.418 0.034-0.822 0.067-1.205 0.098-0.383-4e-3 -0.756 0.041-1.099 0.038-1.372 0.028-2.364-0.02-2.364-0.02" fill="#1b1f3c"/></g><g transform="translate(204.68 454.76)"><path d="m0 0s1.806 0.672 4.621 1.226c0.703 0.141 1.468 0.279 2.281 0.398 0.814 0.102 1.672 0.249 2.567 0.309 0.895 0.068 1.818 0.177 2.764 0.184 0.943 0.038 1.903 0.045 2.865 0.026 0.961-0.012 1.923-0.105 2.869-0.175 0.947-0.043 1.871-0.259 2.766-0.375 0.896-0.138 1.748-0.388 2.555-0.576 0.805-0.217 1.547-0.509 2.23-0.747 0.683-0.247 1.272-0.589 1.802-0.841 0.538-0.234 0.957-0.552 1.304-0.793 0.693-0.488 1.066-0.776 1.066-0.776s-0.467 0.147-1.245 0.421c-0.388 0.14-0.847 0.318-1.411 0.438-0.559 0.124-1.163 0.318-1.847 0.451-0.684 0.12-1.426 0.249-2.21 0.387-0.795 0.082-1.621 0.207-2.485 0.292-0.869 0.06-1.758 0.154-2.673 0.194-0.913 0.044-1.838 0.11-2.771 0.102-0.93 0.041-1.862 0.058-2.781 0.043-0.92-3e-3 -1.826-6e-3 -2.703-9e-3 -1.762-0.032-3.407-0.063-4.816-0.089-2.828-0.078-4.748-0.09-4.748-0.09" fill="#1b1f3c"/></g><g transform="translate(239.18 387.78)"><path d="m0 0 48.765-14.044-0.373-0.207 6.712 21.311-6.127-21.486-0.08-0.283-0.293 0.076-49.131 12.704z" fill="#1b1f3c"/></g><g transform="translate(287.32 396.29)"><path d="m0 0s-8.811 2.825-17.587 5.751c-4.388 1.463-8.768 2.952-12.036 4.118-1.634 0.585-2.989 1.09-3.933 1.455-0.936 0.384-1.471 0.603-1.471 0.603s0.545-0.19 1.5-0.522c0.962-0.313 2.34-0.744 4.001-1.239 3.322-0.986 7.772-2.235 12.229-3.458 8.915-2.446 17.856-4.788 17.856-4.788z" fill="#1b1f3c"/></g><g transform="translate(188.01 390.88)"><path d="m0 0-15.989-49.074 14.076 49.657z" fill="#1b1f3c"/></g><g transform="translate(308.14 541.27)"><path d="m0 0s0.165-0.194 0.483-0.571c0.315-0.379 0.772-0.941 1.355-1.685 1.158-1.49 2.823-3.701 4.718-6.671 1.878-2.974 4.053-6.687 5.875-11.284 0.904-2.31 1.664-4.815 2.165-7.618 0.393-2.662 0.632-5.618 0.772-8.599 0.302-5.988 0.404-12.465 0.38-19.313-0.026-6.848-0.131-14.067-0.389-21.531-0.257-7.464-0.611-15.174-1.18-22.999-0.295-3.913-0.624-7.854-1.103-11.803l-0.367-2.964-0.487-2.961-1.048-5.874c-1.342-7.828-2.554-15.7-3.74-23.441-1.168-7.746-2.318-15.369-3.43-22.747s-2.187-14.51-3.207-21.273c-1.039-6.761-2.014-13.154-3.029-19.039-0.285-1.468-0.495-2.911-0.829-4.311-0.145-0.705-0.321-1.39-0.508-2.058-0.169-0.676-0.335-1.343-0.5-2.002-0.632-2.644-1.187-5.164-1.716-7.53-1.054-4.734-1.977-8.861-2.84-12.236-0.434-1.686-0.843-3.188-1.286-4.467-0.23-0.634-0.436-1.235-0.777-1.706-0.183-0.247-0.496-0.267-0.748-0.283-0.263-0.015-0.509 0.027-0.738 0.074-0.91 0.235-1.511 0.66-1.909 0.922-0.395 0.277-0.58 0.444-0.58 0.444s0.186-0.166 0.583-0.44c0.4-0.258 1.004-0.677 1.911-0.905 0.228-0.044 0.473-0.084 0.731-0.067 0.246 0.017 0.56 0.044 0.723 0.277 0.33 0.463 0.533 1.066 0.757 1.7 0.432 1.28 0.829 2.784 1.25 4.472 0.836 3.379 1.726 7.512 2.743 12.254 0.51 2.371 1.045 4.895 1.658 7.548 0.159 0.662 0.321 1.332 0.485 2.011 0.183 0.677 0.353 1.36 0.491 2.055 0.318 1.383 0.518 2.837 0.791 4.3 0.968 5.887 1.892 12.288 2.879 19.055 0.966 6.77 1.985 13.91 3.039 21.296 1.054 7.387 2.144 15.02 3.251 22.776 1.127 7.756 2.275 15.626 3.56 23.496l1.002 5.882 0.457 2.924 0.341 2.945c0.446 3.924 0.743 7.857 1.006 11.758 0.506 7.807 0.8 15.506 0.997 22.957 0.199 7.451 0.247 14.658 0.22 21.488-0.029 6.83-0.183 13.288-0.529 19.22-0.166 2.979-0.404 5.73-0.824 8.448-0.481 2.549-1.231 5-2.117 7.197-1.788 4.415-3.937 8.025-5.794 10.915-1.875 2.887-3.523 5.04-4.664 6.485-0.574 0.72-1.023 1.264-1.327 1.625-0.307 0.356-0.465 0.54-0.465 0.54z" fill="#1b1f3c"/></g><g transform="translate(159.21 349.64)"><path d="m0 0s2.104-1.523 5.785-4.19c1.839-1.334 4.076-2.949 6.662-4.77 1.293-0.91 2.675-1.87 4.142-2.861 1.484-0.965 2.978-2.075 4.698-2.9 3.454-1.654 7.378-3.297 11.473-5.035 4.115-1.722 8.454-3.538 12.944-5.416 4.487-1.882 9.132-3.809 13.864-5.735 4.73-1.919 9.548-3.88 14.383-5.673 0.607-0.236 1.193-0.423 1.789-0.636l1.855-0.608c1.234-0.426 2.466-0.85 3.696-1.274 2.44-0.856 4.87-1.707 7.282-2.553 4.822-1.67 9.583-3.27 14.238-4.577 2.323-0.659 4.635-1.219 6.877-1.584 0.583-0.099 1.162-0.198 1.738-0.296 0.576-0.106 1.172-0.262 1.75-0.391 0.565-0.163 1.125-0.325 1.683-0.486 0.546-0.192 1.093-0.369 1.626-0.57 4.267-1.624 7.912-3.908 11.151-6.085 1.638-1.069 3.104-2.258 4.676-2.859 1.584-0.647 3.219-1.078 4.739-1.448 3.068-0.696 5.797-1.095 8.047-1.355 2.253-0.248 4.033-0.378 5.247-0.38 0.608-0.014 1.072 0.033 1.384 0.061 0.307 0.067 0.465 0.101 0.465 0.101s-0.156-0.043-0.46-0.128c-0.31-0.047-0.776-0.121-1.386-0.142-1.218-0.061-3.012-0.064-5.285 0.101-2.272 0.163-5.028 0.444-8.165 1.013-1.567 0.313-3.22 0.665-4.953 1.287-0.918 0.34-1.678 0.705-2.518 1.265-0.785 0.503-1.588 1.017-2.408 1.542-3.269 2.076-6.899 4.208-11.032 5.656-0.519 0.167-1.042 0.335-1.568 0.504-0.533 0.138-1.069 0.278-1.609 0.418-0.542 0.104-1.064 0.231-1.63 0.321-0.569 0.081-1.141 0.163-1.715 0.246-2.399 0.304-4.744 0.902-7.113 1.536-4.733 1.284-9.53 2.851-14.383 4.484-2.421 0.825-4.86 1.656-7.31 2.491-1.219 0.408-2.441 0.817-3.664 1.227l-1.849 0.589c-0.628 0.218-1.283 0.417-1.885 0.655-4.889 1.862-9.676 3.86-14.403 5.826-4.722 1.97-9.355 3.94-13.831 5.862-4.485 1.904-8.778 3.841-12.849 5.68-4.074 1.859-7.898 3.574-11.424 5.38-1.769 0.919-3.274 2.071-4.717 3.103-1.432 1.06-2.774 2.081-4.029 3.048-2.51 1.934-4.676 3.645-6.457 5.058-3.555 2.834-5.551 4.498-5.551 4.498" fill="#1b1f3c"/></g></g><g clip-path="url(#g)"><g transform="translate(337.75 584.22)"><path d="m0 0s-6.553-0.401-10.298-6.286c-3.745-5.884-11.635-13.24-11.635-17.653 0-4.414-6.553-2.809-8.024-1.204s-21.8 31.027-22.067 31.429c-0.268 0.401-0.803 5.884 0.669 8.158 1.471 2.273 6.018 16.048 8.425 16.583s33.702-13.374 37.982-18.991c4.279-5.617 4.948-12.036 4.948-12.036" fill="#e3bc94"/></g><g transform="translate(343.3 655.16)"><path d="m0 0s6.018-12.036 6.419-15.848c0.402-3.812 0.201-7.222 0-9.429 0 0 5.684-8.224 6.62-9.829 0.937-1.605 0-5.885-3.61-6.152 0 0 1.738-7.623 0.401-9.362-1.338-1.739-2.541-1.471-2.541-1.471s1.872-4.28 0.936-5.216-1.337-2.675-0.936-3.611 3.878-7.489-1.338-9.228c-5.215-1.738-13.908-1.872-17.921 0.535-4.012 2.408-20.729 12.037-21.933 14.845-1.203 2.809-1.471 6.286-1.471 6.286s-6.687 0.936-10.164 3.611-7.088 6.754-7.355 10.632c-0.268 3.878 1.27 8.292 4.413 9.027 2.684 0.629 4.748 0.87 7.422-1.671 0 0 6.888 10.097 5.818 13.173s0 12.839 6.152 15.38 25.544 6.954 29.088-1.672" fill="#efcaa6"/></g></g><g clip-path="url(#f)"><g transform="translate(317.02 636.11)"><path d="m0 0s-1.07-16.316 2.675-20.729c3.744-4.414 8.769-8.635 13.106-9.496 4.38-0.869 6.687-0.267 8.559 2.541 1.873 2.809 8.292 5.35 10.699 4.414 2.408-0.937 2.943-7.089 2.007-7.49-0.937-0.401-2.542 2.274-6.42 0.535-3.878-1.738-5.617-2.942-6.286-4.948-0.668-2.006-3.878-5.483-2.541-7.088 1.338-1.605 4.38-4.213 6.788-3.678 2.407 0.535 4.848 1.27 4.179 3.544s-2.274 3.21-1.471 4.547c0.802 1.337 1.221 3.091 3.076 2.675 1.939-0.435 2.407-7.356 2.14-11.903-0.268-4.547 0.267-8.693-3.21-9.228s-12.17 4.547-14.578 3.076c-2.407-1.471-19.124 5.216-23.805 10.566-4.681 5.349-4.347 9.863-2.34 12.27 2.006 2.407 4.814 5.884 3.209 8.325-1.734 2.637-4.614 8.025-3.41 13.374 1.204 5.35-0.268 8.961 7.623 8.693" fill="#634e42"/></g><g transform="translate(345.77 632.23)"><path d="m0 0s1.605 4.146-5.483 4.547-12.17-5.082-12.17-5.082 9.094 5.35 11.234 2.541c2.139-2.808 6.018-4.146 6.419-2.006" fill="#634e42"/></g><g transform="translate(302.17 619.86)"><path d="m0 0s-0.334 1.605-1.404 0.468-1.873-1.939-1.806-2.875c0 0-1.471 2.14 0.335 3.41 1.805 1.271 2.073 2.474 1.538 3.009s-2.073-1.07-2.675 0.201c-0.602 1.27-0.669 2.942-2.073 1.738-1.404-1.203-3.544-5.617-1.271-8.96 0 0-3.544 4.346-1.604 8.158 1.939 3.812 5.75 2.006 6.285 1.27 0.535-0.735 2.341-2.139 2.675-3.677s0.468-2.541 0-2.742" fill="#e3bc94"/></g><g transform="translate(306.79 606.72)"><path d="m0 0s2.106 1.204 1.254 3.761c0 0 1.454-4.363-0.702-6.218 0 0-1.003 1.905-0.552 2.457" fill="#e3bc94"/></g></g><g clip-path="url(#e)"><g transform="translate(341.76 670.34)"><path d="m0 0s6.954-6.687 7.088-9.094c0.134-2.408-2.407-8.025-4.279-7.757-1.873 0.267-4.414 2.942-6.687 3.21-2.274 0.267-3.879-1.471-4.548-1.873-0.668-0.401-5.349-1.337-8.291 0-2.943 1.338-5.617-2.006-4.547-2.674 1.07-0.669-3.344-3.076-1.204-6.286s6.152-5.216 4.547-6.955c-1.605-1.738-5.617-2.273-8.559-5.884s-10.566-6.419-14.444-4.146c-3.878 2.274-8.292 1.07-9.495-2.541-1.204-3.611-1.07-7.891 0.668-9.629 1.739-1.739 3.21-8.024 3.21-8.024s-2.808 0.535-2.407-2.14-0.401-10.031-3.879-10.298c-3.477-0.268-8.826 3.343-8.425 6.152 0.401 2.808-2.809 1.471-2.14 6.286 0.669 4.814 0.669 7.756-1.471 8.158-2.14 0.401-4.012-2.14-4.815-0.535-0.802 1.605 2.274 4.413-0.133 6.018-2.408 1.605-2.675 7.356-1.07 10.699s-1.204 6.419 0.802 11.1-1.872 3.477 1.872 9.228c3.745 5.751 20.061 18.724 22.067 20.195s9.763 2.273 14.177 0.267l1.337-1.471s16.049 10.833 30.626-2.006" fill="#634e42"/></g></g><g clip-path="url(#d)"><g transform="translate(343.9 653.96)"><path d="m0 0s-9.429 2.508-11.836 10.432-8.225 10.03-15.146 6.218c0 0 9.83 6.721 14.946 1.505 5.115-5.216 6.118-16.249 12.036-18.155" fill="#85736b"/></g><g transform="translate(313.21 641.72)"><path d="m0 0s-0.025-0.27-0.146-0.73c-0.139-0.45-0.331-1.11-0.702-1.842-0.184-0.365-0.393-0.76-0.653-1.152-0.259-0.393-0.533-0.81-0.872-1.198-0.634-0.816-1.453-1.557-2.297-2.258-0.452-0.312-0.891-0.643-1.348-0.928-0.464-0.273-0.927-0.535-1.382-0.766-0.465-0.215-0.921-0.406-1.35-0.589-0.435-0.17-0.863-0.288-1.25-0.411-0.766-0.269-1.453-0.33-1.909-0.438-0.463-0.085-0.729-0.12-0.729-0.12s0.244 0.121 0.675 0.307c0.429 0.189 1.052 0.422 1.759 0.788 0.355 0.172 0.74 0.358 1.148 0.555 0.394 0.222 0.806 0.458 1.24 0.684 0.424 0.244 0.833 0.543 1.275 0.801 0.428 0.28 0.834 0.605 1.257 0.905 0.397 0.332 0.81 0.648 1.182 0.997 0.361 0.36 0.752 0.68 1.068 1.051 0.681 0.697 1.23 1.427 1.694 2.062 0.451 0.645 0.798 1.21 1.013 1.623 0.216 0.412 0.327 0.659 0.327 0.659" fill="#85736b"/></g><g transform="translate(315.51 639.62)"><path d="m0 0s-0.067-0.258-0.247-0.686c-0.186-0.424-0.448-1.041-0.863-1.725-0.2-0.347-0.434-0.713-0.705-1.083-0.256-0.384-0.572-0.753-0.888-1.144-0.347-0.363-0.676-0.771-1.073-1.122-0.392-0.356-0.784-0.726-1.22-1.046-0.422-0.335-0.871-0.634-1.328-0.907-0.437-0.303-0.922-0.51-1.375-0.733-0.444-0.241-0.916-0.382-1.351-0.535-0.43-0.17-0.854-0.275-1.251-0.348-0.393-0.083-0.75-0.168-1.074-0.199-0.324-0.025-0.606-0.047-0.838-0.065-0.463-0.032-0.726-0.036-0.726-0.036s0.252 0.092 0.691 0.227c0.219 0.066 0.484 0.146 0.789 0.237 0.301 0.098 0.626 0.256 0.99 0.385 0.364 0.13 0.748 0.291 1.142 0.492 0.397 0.192 0.82 0.376 1.23 0.627 0.417 0.234 0.845 0.477 1.257 0.764 0.425 0.266 0.841 0.558 1.235 0.883 0.825 0.599 1.56 1.312 2.257 1.973 0.319 0.358 0.669 0.671 0.952 1.011 0.294 0.331 0.573 0.645 0.818 0.947 0.493 0.6 0.903 1.112 1.161 1.49 0.265 0.377 0.417 0.593 0.417 0.593" fill="#85736b"/></g><g transform="translate(321.63 659.28)"><path d="m0 0s-0.253-0.271-0.751-0.687c-0.496-0.416-1.225-0.993-2.16-1.603-0.48-0.283-0.981-0.631-1.559-0.908-0.564-0.306-1.171-0.609-1.826-0.865-0.64-0.292-1.339-0.501-2.042-0.732-0.715-0.19-1.451-0.366-2.194-0.496-0.754-0.064-1.499-0.219-2.249-0.179-0.747-0.014-1.48 0.011-2.182 0.145-0.351 0.053-0.695 0.105-1.033 0.156-0.327 0.099-0.647 0.195-0.958 0.289-0.31 0.097-0.61 0.191-0.901 0.281-0.289 0.095-0.543 0.255-0.798 0.371-0.504 0.253-0.97 0.474-1.355 0.712-0.367 0.268-0.687 0.501-0.951 0.694-0.522 0.386-0.807 0.615-0.807 0.615s0.339-0.158 0.911-0.451c0.283-0.146 0.627-0.325 1.021-0.529 0.409-0.17 0.892-0.312 1.395-0.508 0.497-0.216 1.071-0.335 1.674-0.463 0.299-0.065 0.607-0.132 0.922-0.201 0.321-0.03 0.649-0.06 0.982-0.091 0.334-0.022 0.668-0.089 1.013-0.077 0.344 7e-3 0.692 0.015 1.043 0.023 0.702-0.031 1.408 0.134 2.117 0.2 0.705 0.113 1.407 0.269 2.091 0.438 0.672 0.219 1.358 0.363 1.984 0.623 0.639 0.223 1.25 0.46 1.82 0.714 0.579 0.231 1.099 0.513 1.599 0.735 0.97 0.501 1.788 0.921 2.33 1.265 0.554 0.326 0.864 0.529 0.864 0.529" fill="#85736b"/></g><g transform="translate(301.57 650.75)"><path d="m0 0s-0.363-0.045-0.978-0.192c-0.617-0.136-1.477-0.414-2.468-0.82-0.495-0.205-1.018-0.455-1.564-0.73-0.543-0.281-1.092-0.617-1.661-0.962-0.556-0.366-1.114-0.765-1.667-1.193-0.547-0.433-1.102-0.877-1.608-1.376-1.045-0.954-2.063-2.026-3.072-2.939-1.006-0.924-1.959-1.792-2.95-2.369-0.489-0.291-1.016-0.481-1.5-0.496-0.485-0.016-0.872 0.116-1.178 0.216-0.303 0.116-0.528 0.23-0.68 0.31-0.152 0.078-0.233 0.119-0.233 0.119s0.352-0.11 0.966-0.242c0.306-0.05 0.683-0.111 1.085-0.033 0.401 0.08 0.81 0.303 1.228 0.608 0.832 0.624 1.7 1.551 2.646 2.517 0.953 0.976 1.924 2.021 3.009 3.042 0.536 0.512 1.125 0.969 1.705 1.412 0.581 0.445 1.199 0.816 1.795 1.176 1.211 0.688 2.424 1.178 3.491 1.48 1.066 0.313 1.989 0.419 2.627 0.472 0.642 0.043 1.007 0 1.007 0" fill="#85736b"/></g><g transform="translate(300.67 671.21)"><path d="m0 0s-0.371-0.078-1.002-0.259c-0.633-0.171-1.523-0.467-2.557-0.885-0.523-0.195-1.067-0.457-1.647-0.717-0.574-0.273-1.162-0.596-1.768-0.927-0.588-0.363-1.21-0.713-1.792-1.146-0.295-0.208-0.593-0.418-0.892-0.629l-0.845-0.705c-0.592-0.438-1.085-0.987-1.612-1.482-0.525-0.497-0.955-1.069-1.42-1.579-0.456-0.52-0.806-1.092-1.195-1.596-0.396-0.501-0.666-1.041-0.963-1.513-0.268-0.487-0.59-0.9-0.767-1.32-0.2-0.41-0.375-0.767-0.519-1.062-0.292-0.589-0.474-0.925-0.474-0.925s0.097 0.363 0.293 0.996c0.099 0.317 0.221 0.701 0.36 1.142 0.115 0.454 0.37 0.912 0.599 1.436 0.247 0.515 0.468 1.103 0.841 1.646 0.358 0.55 0.674 1.178 1.129 1.736 0.463 0.549 0.87 1.184 1.419 1.708 0.543 0.527 1.052 1.11 1.666 1.578l0.897 0.725c0.316 0.216 0.631 0.431 0.944 0.644 0.612 0.448 1.289 0.766 1.915 1.119 0.641 0.323 1.28 0.601 1.892 0.838 0.616 0.229 1.201 0.435 1.757 0.575 1.098 0.321 2.047 0.445 2.702 0.533 0.659 0.079 1.039 0.069 1.039 0.069" fill="#85736b"/></g><g transform="translate(319.43 641.52)"><path d="m0 0s-4e-3 -0.28-0.089-0.763c-0.099-0.476-0.225-1.175-0.532-1.963-0.131-0.404-0.332-0.816-0.533-1.259-0.236-0.423-0.449-0.897-0.759-1.329-0.29-0.446-0.597-0.905-0.968-1.325-0.341-0.446-0.757-0.836-1.152-1.246-0.404-0.401-0.869-0.734-1.295-1.097-0.447-0.335-0.926-0.61-1.367-0.904-0.459-0.265-0.929-0.476-1.362-0.693-0.427-0.228-0.878-0.342-1.27-0.493-0.397-0.14-0.757-0.275-1.097-0.332-0.333-0.073-0.623-0.137-0.862-0.189-0.477-0.1-0.75-0.143-0.75-0.143s0.251 0.129 0.692 0.329c0.22 0.098 0.487 0.216 0.793 0.353 0.311 0.122 0.633 0.327 0.997 0.51 0.356 0.203 0.765 0.371 1.154 0.628 0.393 0.246 0.807 0.506 1.235 0.775 0.405 0.299 0.822 0.609 1.247 0.923 0.392 0.352 0.823 0.673 1.196 1.056 0.377 0.378 0.779 0.735 1.107 1.149 0.352 0.392 0.684 0.79 0.98 1.198 0.605 0.805 1.106 1.608 1.493 2.324 0.396 0.712 0.687 1.335 0.867 1.781 0.185 0.445 0.275 0.71 0.275 0.71" fill="#85736b"/></g><g transform="translate(302.67 646.84)"><path d="m0 0s-0.428-0.131-1.177-0.36c-0.748-0.226-1.797-0.611-3.039-1.087-0.62-0.242-1.281-0.527-1.971-0.845-0.686-0.325-1.389-0.704-2.112-1.096-0.35-0.213-0.706-0.43-1.067-0.649-0.344-0.24-0.693-0.483-1.044-0.728-0.329-0.27-0.675-0.527-0.996-0.812-0.3-0.304-0.635-0.58-0.909-0.907-0.563-0.622-1.103-1.359-1.705-2.028-0.597-0.695-1.25-1.286-1.901-1.847-0.649-0.561-1.332-1.035-2.001-1.446-0.67-0.408-1.325-0.758-1.952-1.032-1.244-0.572-2.378-0.796-3.16-0.896-0.393-0.055-0.708-0.041-0.917-0.034-0.21 0.017-0.322 0.025-0.322 0.025s0.454 9e-3 1.205 0.2c0.754 0.178 1.789 0.582 2.947 1.211 0.581 0.309 1.183 0.693 1.794 1.133 0.61 0.442 1.219 0.951 1.825 1.501 0.602 0.551 1.197 1.169 1.746 1.81 0.569 0.645 1.074 1.365 1.703 2.077 0.307 0.353 0.668 0.647 0.998 0.971 0.349 0.3 0.72 0.57 1.075 0.853 0.372 0.258 0.751 0.497 1.123 0.737 0.385 0.214 0.766 0.425 1.14 0.633 0.761 0.39 1.52 0.712 2.246 0.993 0.73 0.271 1.424 0.509 2.072 0.705 1.294 0.399 2.405 0.598 3.176 0.746 0.775 0.135 1.223 0.172 1.223 0.172" fill="#85736b"/></g><g transform="translate(303.08 640.52)"><path d="m0 0s-0.498 0.055-1.367 0.056c-0.434 0-0.96-0.02-1.559-0.071-0.599-0.061-1.267-0.163-1.987-0.301-0.716-0.159-1.483-0.364-2.255-0.677-0.77-0.315-1.559-0.702-2.3-1.209l-0.565-0.377-0.524-0.446c-0.365-0.283-0.687-0.621-1.005-0.968-0.341-0.326-0.619-0.712-0.898-1.099-0.284-0.371-0.573-0.797-0.846-1.208-0.557-0.817-1.176-1.648-1.799-2.413-0.614-0.781-1.288-1.497-1.95-2.175-0.665-0.679-1.363-1.28-2.053-1.814-0.697-0.524-1.373-1-2.045-1.363-0.656-0.389-1.311-0.65-1.893-0.856-0.59-0.194-1.116-0.307-1.552-0.379-0.441-0.048-0.785-0.071-1.022-0.055-0.234 6e-3 -0.359 9e-3 -0.359 9e-3s0.124 0.016 0.356 0.046c0.233 0.014 0.565 0.103 0.986 0.191 0.416 0.118 0.91 0.285 1.454 0.534 0.535 0.265 1.127 0.583 1.737 0.991 0.619 0.391 1.239 0.895 1.874 1.445 0.629 0.559 1.253 1.19 1.882 1.861 0.624 0.676 1.233 1.406 1.831 2.167 0.606 0.764 1.169 1.539 1.727 2.374 0.283 0.415 0.558 0.811 0.881 1.226 0.306 0.415 0.613 0.827 0.987 1.179l0.532 0.546c0.184 0.173 0.392 0.319 0.585 0.478l0.585 0.46 0.623 0.387c0.814 0.529 1.693 0.875 2.526 1.152 0.838 0.273 1.653 0.433 2.406 0.546 0.378 0.045 0.741 0.079 1.086 0.107 0.345 3e-3 0.673 7e-3 0.981 0.011 0.616-0.017 1.148-0.056 1.585-0.106 0.873-0.107 1.355-0.249 1.355-0.249" fill="#85736b"/></g><g transform="translate(287.53 602.3)"><path d="m0 0s0.105 0.518 0.277 1.244c0.164 0.731 0.387 1.678 0.528 2.621 0.027 0.235 0.074 0.471 0.089 0.703 2e-3 0.231 0.062 0.461 0.053 0.682-4e-3 0.22 0.031 0.439 0.014 0.642-0.017 0.201 8e-3 0.404-0.018 0.582-0.03 0.361-0.054 0.675-0.098 0.892-0.031 0.221-0.043 0.357-0.043 0.357-0.025-8e-3 0.403-0.365 0.7-1.117 0.092-0.182 0.136-0.393 0.199-0.615 0.07-0.223 0.096-0.463 0.126-0.713 0.064-0.5 0.025-1.035-0.034-1.562-0.099-0.52-0.216-1.035-0.401-1.491-0.168-0.461-0.384-0.866-0.586-1.199-0.407-0.67-0.806-1.026-0.806-1.026" fill="#85736b"/></g><g transform="translate(283.72 605.51)"><path d="M 0,0 C 0,0 0.48,0.61 1.038,1.572 1.315,2.054 1.617,2.623 1.884,3.253 2.031,3.562 2.145,3.896 2.269,4.231 2.41,4.56 2.487,4.918 2.597,5.263 2.702,5.61 2.771,5.968 2.86,6.315 c 0.053,0.354 0.125,0.7 0.185,1.039 0.04,0.342 0.079,0.674 0.115,0.987 0.041,0.316 0.037,0.617 0.064,0.897 0.054,0.56 0.037,1.03 0.056,1.365 0.019,0.338 0.03,0.531 0.03,0.531 0,0 0.066,-0.18 0.167,-0.503 C 3.57,10.308 3.733,9.844 3.798,9.266 3.834,8.978 3.905,8.664 3.907,8.33 3.916,7.995 3.934,7.639 3.922,7.272 3.885,6.907 3.868,6.525 3.81,6.142 3.727,5.764 3.664,5.373 3.559,4.993 3.43,4.62 3.332,4.237 3.169,3.883 3.03,3.52 2.852,3.181 2.67,2.859 2.507,2.528 2.284,2.245 2.1,1.964 1.895,1.696 1.703,1.442 1.497,1.232 0.707,0.358 0,0 0,0" fill="#85736b"/></g></g><g clip-path="url(#c)"><g transform="translate(193.18 340.55)"><path d="m0 0s-1.605-18.456-2.942-22.468c-1.338-4.012-3.21-6.821-3.611-9.094-0.401-2.274 0-3.745 2.006-3.745s4.681 1.872 5.751 4.681c1.07 2.808 2.674 4.815 3.076 4.012 0.401-0.802-1.605-7.088-2.943-8.292-1.337-1.203-5.082-2.407-4.814-4.146 0.267-1.738 0.668-3.611 3.611-2.541 2.942 1.07 6.687 2.274 8.024 5.082 1.337 2.809 2.942 6.687 4.012 6.42 1.07-0.268 0.268-2.675-1.471-5.483-1.739-2.809-3.611-5.617-5.483-7.49-1.873-1.872-2.809-3.611-1.07-4.948 1.738-1.337 3.21-1.605 5.216 0.134 2.006 1.738 5.082 2.541 6.553 5.215 1.471 2.675 2.808 8.56 3.611 10.031 0.802 1.471 2.942 1.337 2.14-0.535-0.803-1.872-5.082-10.164-7.356-12.304s-2.675-4.681-0.936-5.617c1.738-0.936 6.419 1.605 8.96 4.413 2.541 2.809 5.35 10.031 6.955 14.043s3.611 7.355 3.611 10.699c0 3.343 0.267 18.723 0.267 18.723s-25.009 5.484-33.167 3.21" fill="#efcaa6"/></g></g><g clip-path="url(#b)"><g transform="translate(189.43 342.69)"><path d="m0 0s13.24-6.152 16.45-8.024c3.21-1.873 20.328-11.636 21.665-15.514 1.338-3.878 4.681 21.532 4.681 21.532s-16.851 7.89-18.456 7.89c-1.604 0-22.601-4.012-24.34-5.884" fill="#e3bc94"/></g></g><g clip-path="url(#a)"><g transform="translate(348.35 632.09)"><path d="m0 0s0.277 3.253 2.039 2.608c1.371-0.502 0.955-1.461 0.335-2.374-0.912-1.344-1.471-0.97-1.772-1.538 0 0-0.736 0.568-0.602 1.304" fill="#634e42"/></g><g transform="translate(308.99 558.81)"><path d="m0 0 7.386-6e-3c1.236-0.499 2.022-1.086 2.243-2.401 0.309-1.838 1.07-4.815 1.605-5.885 0.837-1.674 12.571-25.678 13.508-31.696 0 0-5.484 11.635-10.298 15.514-4.815 3.878-12.572 10.298-12.572 10.298s-1.471 8.425-1.872 14.176" fill="#4c606e"/></g></g></g></svg>
